<svg id="Layer_1" data-name="Layer 1" xmlns="http://www.w3.org/2000/svg" width="155" height="43.2" viewBox="0 0 155 43.2">
  <defs>
    <style>
      .cls-1 {
        fill: #036;
      }

      .cls-2 {
        fill: #fdb913;
      }

      .cls-3, .cls-4 {
        fill: #fff;
      }

      .cls-3 {
        stroke: #fff;
        stroke-miterlimit: 10;
        stroke-width: 0.25px;
      }

      .cls-5 {
        fill: #4c81af;
      }
    </style>
  </defs>
  <title>10_gov3_bc_logo</title>
  <rect class="cls-1" width="155" height="43.17"/>
  <rect class="cls-2" x="75.2" y="41.1" width="68.5" height="0.83"/>
  <path class="cls-3" d="M153.9,36.2h-.2c-.7-.2-1-1-1.2-1.6L149,26.1c0-.1-.1-.3-.2-.3s-.2.2-.3.4L145,34.6a5.6,5.6,0,0,1-.7,1.3l-.7.2H143a.3.3,0,0,0,0,.4h3.9a.3.3,0,0,0,0-.4h-.7c-.4,0-.9-.1-.9-.6a2.8,2.8,0,0,1,.3-.9l.5-1.3c.3-.6.2-.7.9-.7h2.4c.8,0,.7,0,1.1.9l.6,1.3a2.8,2.8,0,0,1,.3.8c0,.4-.5.5-.9.5h-.7a.3.3,0,0,0,0,.4h4.3A.3.3,0,0,0,153.9,36.2Zm-4.7-4h-2.1c-.1,0-.6.1-.6-.1v-.2l1.3-3.1c0-.1.2-.5.3-.5s.3.4.3.5l1.2,2.9v.4Z"/>
  <path class="cls-3" d="M138.8,28.3c0-1.7,0-2-1.1-2h-.4c-.1-.1-.1-.3,0-.4h4.3c.1,0,.1.3,0,.4h-.4c-1,.1-1.1.3-1.1,2v5.7c0,1.7,0,1.9,1.1,2h.4c.1.1.1.3,0,.4h-4.3a.3.3,0,0,1,0-.4h.4c1-.1,1.1-.3,1.1-2Z"/>
  <path class="cls-3" d="M128.3,27.9c0-1.2-.1-1.5-.9-1.6h-.6c-.1-.1-.1-.4,0-.4h4a8.2,8.2,0,0,1,3.2.4,2.1,2.1,0,0,1,1.4,2c0,1.2-.8,1.8-1.9,2.2s.1.2.4.2a2.8,2.8,0,0,1,2.5,2.7c0,1.9-1.6,3.2-5,3.2H127a.3.3,0,0,1,0-.4h.3c1-.1,1-.3,1-2Zm1.5,2.2c0,.5,0,.5,1,.5s3-.5,3-2.1-1.4-2.2-2.8-2.2h-.9c-.2,0-.3.1-.3.4Zm0,3.8a2.8,2.8,0,0,0,.4,1.8,2,2,0,0,0,1.5.5c1.7,0,3-.7,3-2.3S134,31,131,31c-1,0-1.1.1-1.1.4Z"/>
  <path class="cls-3" d="M125,36.1h-.3l-.5-.2c-.2-.2-.2-.9-.2-1.2v-7c0-.3-.1-1,.2-1.2l.6-.2h.7c.1-.1.1-.3,0-.4h-2.6c-.2,0-.4,0-.5.2l-3.9,8-3.4-7.8c-.1-.3-.1-.5-.5-.5H112c-.1,0-.1.3,0,.4h.7c.7,0,.8.2.7,1l-.6,7.5c-.1.8-.1,1.2-.9,1.2h-.7a.3.3,0,0,0,0,.4h3.9a.3.3,0,0,0,0-.4h-.7c-1.2-.1-1.1-.9-1-1.9l.5-7h.1l3.7,8.6a.3.3,0,0,0,.3.3c.2,0,.2-.2.3-.3l4.2-8.9h.1v7.7c0,.3,0,.9-.3,1.2l-.7.2h-.7a.3.3,0,0,0,0,.4h4.5a.3.3,0,0,0,0-.4Z"/>
  <path class="cls-3" d="M108.6,29.9a10.9,10.9,0,0,0-.3-3.3,1.1,1.1,0,0,0-.8-.3H107a.3.3,0,0,1,0-.4h3.7a.3.3,0,0,1,0,.4h-.4a1,1,0,0,0-.8.4,13.6,13.6,0,0,0-.2,3.3v1.8a5.4,5.4,0,0,1-1.2,3.8,4.6,4.6,0,0,1-3.2,1.2,5,5,0,0,1-3.2-.9c-.9-.7-1.3-1.9-1.3-3.8V28.3c0-1.7,0-1.9-1-2h-.4c-.1-.1-.1-.3,0-.4H103c.1,0,.1.3,0,.4h-.4c-1,.1-1,.3-1,2v3.5c0,2.6.8,4.3,3.4,4.3s3.4-1.8,3.4-4.3Z"/>
  <path class="cls-3" d="M91.5,28.3c0-1.7,0-1.9-1.2-2h-.4c-.1-.1-.1-.3,0-.4h4.5c.1,0,.1.3,0,.4H94c-1,.1-1.1.3-1.1,2v5.6c0,1,.1,1.4.4,1.7s.5.4,1.9.4a5.1,5.1,0,0,0,2.2-.2,3.4,3.4,0,0,0,1.3-1.6c.1-.1.4,0,.4.1a12,12,0,0,1-.7,2.2H90a.3.3,0,0,1,0-.4h.5c1-.1,1.1-.3,1.1-2Z"/>
  <path class="cls-3" d="M77.7,31.3a5.7,5.7,0,0,1,5.7-5.7h.3c3.9,0,5.8,2.7,5.8,5.5a5.6,5.6,0,0,1-5.6,5.6h-.2C79.9,36.7,77.7,34.2,77.7,31.3Zm10.2.3c0-2.7-1.2-5.5-4.4-5.5s-4,1.1-4,4.7,1.2,5.5,4.5,5.5,3.9-1.5,3.9-4.6Z"/>
  <path class="cls-3" d="M67,25a8.4,8.4,0,0,1,5.3-1.7,15,15,0,0,1,3.4.5h.5c0,.5.1,1.7.3,2.8a.4.4,0,0,1-.5,0c-.3-1.3-1.2-2.8-4-2.8s-5.5,1.9-5.5,5.9,2.7,6.3,5.8,6.3a4.1,4.1,0,0,0,4.1-2.8.4.4,0,0,1,.5.1,7.2,7.2,0,0,1-.9,2.7l-.7.2a11.4,11.4,0,0,1-3.1.5,8.5,8.5,0,0,1-4.8-1.3,6.2,6.2,0,0,1-2.8-5.3A6.4,6.4,0,0,1,67,25Z"/>
  <path class="cls-3" d="M135,16.2c-.8,0-.9,0-.9.5V19c0,1.7.1,1.9,1.1,2h.5c.1.1.1.4,0,.4h-4.2a.3.3,0,0,1,0-.4h.3c1-.2,1-.3,1-2V13.2c0-1.7-.1-2-1-2h-.4c-.1-.1-.1-.4,0-.4h4.2c.1,0,.1.3,0,.4h-.3c-1,.1-1,.3-1,2v1.9c0,.5,0,.5.9.5H140c.8,0,.9,0,.9-.5V13.2c0-1.7,0-1.9-1.1-2h-.3c-.1-.1-.1-.4,0-.4h4.1c.1,0,.1.3,0,.4h-.4c-1,.1-1,.3-1,2V19c0,1.7,0,1.9,1,2h.4c.1.1.1.4,0,.4h-4.2a.3.3,0,0,1,0-.4h.3c1.1-.2,1.1-.3,1.1-2V16.8c0-.5,0-.5-.9-.5Z"/>
  <path class="cls-3" d="M125.4,21.6a6.8,6.8,0,0,1-3-.6,6.4,6.4,0,0,1-.5-2.2c.1-.1.4-.1.5,0a3.3,3.3,0,0,0,3.3,2.4c1.6,0,2.4-.9,2.4-1.9s-.2-1.5-1.6-2.2l-1.8-1a3.4,3.4,0,0,1-2-2.8c0-1.5,1.4-2.8,3.9-2.8l1.8.2h.7a6,6,0,0,1,.3,2h-.5a2.4,2.4,0,0,0-2.6-1.8c-1.9,0-2.2,1-2.2,1.8s.9,1.6,1.6,2l1.5.8c1.2.6,2.4,1.6,2.4,3.1S127.9,21.6,125.4,21.6Z"/>
  <path class="cls-3" d="M117.4,13.3c0-1.7,0-2-1.1-2h-.4c-.1-.1-.1-.4,0-.4h4.5c.1,0,.1.3,0,.4h-.4c-1.1.1-1.1.4-1.1,2V19c0,1.7,0,1.9,1.1,2h.4c.1.1.1.4,0,.4h-4.5a.3.3,0,0,1,0-.4h.4c1.1-.1,1.1-.3,1.1-2Z"/>
  <path class="cls-3" d="M110.3,19c0,1.7,0,1.9,1,2h.5c.1.1.1.4,0,.4h-4.5a.3.3,0,0,1,0-.4h.6c1-.1,1-.3,1-2V11.8c0-.5,0-.5-.5-.5h-.9a3.5,3.5,0,0,0-2.1.4,2.9,2.9,0,0,0-.7,1.1.3.3,0,0,1-.4-.1,16.5,16.5,0,0,0,.6-2.4h.3c.1.5.7.5,1.4.5h6.8c.9,0,1.1,0,1.3-.5h.3a9.4,9.4,0,0,0-.2,2.4.3.3,0,0,1-.4,0c-.1-.4-.2-1-.4-1.2a3.4,3.4,0,0,0-1.9-.4h-1.2c-.5,0-.5,0-.5.5Z"/>
  <path class="cls-3" d="M100.4,13.3c0-1.7,0-2-1.1-2h-.4c-.1-.1-.1-.4,0-.4h4.4c.1,0,.1.3,0,.4h-.4c-1.1.1-1.1.4-1.1,2V19c0,1.7,0,1.9,1.1,2h.4c.1.1.1.4,0,.4H98.9a.3.3,0,0,1,0-.4h.4c1.1-.1,1.1-.3,1.1-2Z"/>
  <path class="cls-3" d="M97.7,21.1h-.6c-.6-.1-.9-.7-1.2-1.2l-1.5-2.7c-.3-.4-.6-1-1.2-1.1,1.6-.2,3-1.1,3-2.7s-1.8-2.6-3.6-2.6H87.4c-.3,0-.3,0-.3.3s.1.2.5.2,1.2.3,1.2,1.4v7c0,1,.1,1.3-1,1.4h-.7a.3.3,0,0,0,0,.4h4.8a.3.3,0,0,0,0-.4h-.7c-1.1-.1-1-.4-1-1.4V17c0-.2,0-.6.1-.7h.4c1.4,0,1.4.1,2.1,1.3l1.9,3.4c.1.3.3.6.6.6h2.3A.3.3,0,0,0,97.7,21.1Zm-6.5-5.3c-.3,0-1,.1-1-.3V12.4c0-1.2,0-1.4,1.5-1.4s2.7.9,2.7,2.4a2,2,0,0,1-.9,1.8A3.9,3.9,0,0,1,91.2,15.8Z"/>
  <path class="cls-3" d="M76.9,11.4c0-1.4-.1-1.8-1-1.8h-.7c-.1-.1-.1-.5,0-.5h4.5a8.7,8.7,0,0,1,3.5.5,2.5,2.5,0,0,1,1.6,2.4c0,1.4-.9,2-2.1,2.6s.2.2.4.3a3.2,3.2,0,0,1,2.8,3.1c0,2.2-1.8,3.6-5.6,3.6H75.5a.3.3,0,0,1,0-.5h.4c1.1-.2,1.2-.4,1.2-2.4Zm1.7,2.5c0,.5,0,.6,1.1.5S83,13.8,83,12s-1.5-2.5-3.1-2.5h-1c-.2.1-.3.1-.3.5Zm0,4.4a3.4,3.4,0,0,0,.4,2,2.1,2.1,0,0,0,1.7.5c1.9,0,3.3-.7,3.3-2.6S83.2,15,79.8,15c-1.1,0-1.2.1-1.2.5Z"/>
  <path class="cls-4" d="M8.6,35.3c9.7,0,23.2,5.5,33,5.5,7,0,13.8-1.9,17.7-4.6a29.6,29.6,0,1,0-58.5,0A48.4,48.4,0,0,1,8.6,35.3Z"/>
  <polygon class="cls-2" points="49.1 24.4 50.3 24.9 52.9 23.1 49.1 24.4"/>
  <path class="cls-2" d="M5.5,22.4,2.4,21.3l.2-.4L6,22.1H6l.5-.3h.2L2.9,20.1l.2-.4,8.4,3.4h.3L3.4,18.9l.2-.4,8.9,4.1h.1L4,17.7l.2-.4,12.4,6.8.4-.7a110.7,110.7,0,0,0-9.3-7.8,110.3,110.3,0,0,0,10.5,6l.5-.7L8.2,11.7l.3-.3L17,18.7,9.1,10.7l.3-.3L18.3,19,10,9.8l.3-.3L18,17.7,11,8.9l.3-.3,9,10.9L21,19A110.1,110.1,0,0,0,15.3,8.4a110.3,110.3,0,0,0,7.4,9.5l.8-.4h0L17.1,4.9l.4-.2,5.2,10L18.3,4.4l.4-.2,5,11.3L19.5,3.9h.4l4,10.5L20.7,3.4h.4l4.2,13.4h0l.9-.2A110.2,110.2,0,0,0,24.9,4.5,110.4,110.4,0,0,0,28.2,16H29l-1.1-14h.4l1.1,11.2L29.2,2h.4l.4,12.4L30.5,2H31l-.2,11.2L31.8,2h.4L31.1,16H32A110.5,110.5,0,0,0,35.3,4.6,111.1,111.1,0,0,0,34,16.4l.8.3L39,3.3h.4L36.2,14.3l4-10.5h.4L36.4,15.6l5-11.3.4.2L37.5,14.8l5.2-10,.4.2L36.8,17.4h0l.8.4a110.6,110.6,0,0,0,7.4-9.4A111.1,111.1,0,0,0,39.3,19l.7.6L48.8,8.8l.3.3-7,8.8,7.7-8.2.3.3-8.3,9.2,8.9-8.6.3.3-7.9,7.9,8.5-7.3.3.3L41.5,21h0l.5.6a110.5,110.5,0,0,0,10.4-6,110.6,110.6,0,0,0-9.2,7.7l.5.8,12.2-6.7.2.4-9.8,5.5,10.2-4.7.2.4-9.5,4.6h.2L57,19.8l.2.4-9,3.8h.2l6-2,.9-.6.3.2,2-.6.2.4L56,22l2.4,1.9.8.4A30,30,0,0,0,.7,25H.8l.4-.2h.2Z"/>
  <path class="cls-5" d="M.5,36.8a49.3,49.3,0,0,1,8.1-.9c9.7,0,23.2,5.5,33,5.5,7.2,0,14.2-2,18-4.8a30.2,30.2,0,0,0-.4-12.2L55.2,22l-4.8,3.3-3.3-1.2c-1.1.5-7.8,5-7.8,5l-2.6-1.9L34,26.8l-3.7-2.7L26.1,27l-4.9,2.7c-.2,0-5.7-4.4-5.7-4.4L13,22.6l-2.2,1.1h-.1L9,23.2,7,22.2.8,25H.7A30.2,30.2,0,0,0,.5,36.8Z"/>
</svg>
