<svg id="Layer_1" data-name="Layer 1" xmlns="http://www.w3.org/2000/svg" width="155" height="41.4" viewBox="0 0 155 41.4">
  <defs>
    <style>
      .cls-1 {
        fill: #013366;
      }

      .cls-2 {
        fill: #fdb913;
      }

      .cls-3 {
        fill: #fff;
      }

      .cls-4 {
        fill: #4c81af;
      }
    </style>
  </defs>
  <title>13_gov3_bc_logo</title>
  <rect class="cls-1" width="155" height="41.45"/>
  <g>
    <rect class="cls-2" x="75.2" y="40.6" width="68.5" height="0.83"/>
    <g>
      <g>
        <path class="cls-3" d="M154,35.6h-.3c-.6-.1-.8-.7-1.1-1.3V34L149,25.6h0c0-.1-.1-.3-.3-.3s-.3.2-.4.4l-3.4,8.5a5.6,5.6,0,0,1-.7,1.3l-.6.2h-.8a.4.4,0,0,0,0,.5h4a.4.4,0,0,0,0-.5h-.7c-.5-.1-.8-.1-.8-.5a2.7,2.7,0,0,1,.2-.9l.5-1.3v-.3c.1-.3.1-.4.7-.4h2.4c.7,0,.7,0,.9.5v.3l.6,1.3a2.7,2.7,0,0,1,.2.8c0,.3-.2.4-.8.4h-.8a.4.4,0,0,0,0,.5H154A.4.4,0,0,0,154,35.6Zm-4.3-4.1h-3l1.3-3.1h0a.9.9,0,0,1,.2-.4l.2.3h0l1.2,2.9Z"/>
        <path class="cls-3" d="M141.3,25.9h.5a.3.3,0,0,0,.1-.4l-.2-.2h-4.4a.4.4,0,0,0-.1.3.3.3,0,0,0,.1.2h.5c.9,0,1,.2,1,2v5.7c0,1.7-.1,1.8-1,1.9h-.5a.4.4,0,0,0,0,.5h4.5a.4.4,0,0,0,.1-.3.3.3,0,0,0-.1-.2h-.5c-1-.1-1-.2-1-1.9V27.8C140.3,26.1,140.4,26,141.3,25.9Z"/>
        <path class="cls-3" d="M133.9,30h-.3c1-.4,1.9-1,1.9-2.3a2.2,2.2,0,0,0-1.5-2.1,8.2,8.2,0,0,0-3.2-.4h-4.1a.5.5,0,0,0,.1.5h.7c.7.1.8.2.8,1.5v6.1c0,1.7,0,1.8-.9,1.9h-.4a.4.4,0,0,0-.1.3v.3h4.5c3.2,0,5.1-1.2,5.1-3.3A2.9,2.9,0,0,0,133.9,30ZM130,33.3V30.9c0-.2,0-.3,1-.3,3.2,0,3.6,1.7,3.6,2.7s-1.8,2.2-2.9,2.2a1.9,1.9,0,0,1-1.4-.4A2.7,2.7,0,0,1,130,33.3Zm.9-3.4H130s0-.1,0-.3V26.3c0-.3.1-.3.2-.3h.9c1.2,0,2.7.5,2.7,2.1S132.9,29.8,130.9,29.9Z"/>
        <path class="cls-3" d="M124.8,25.9h.8a.3.3,0,0,0,.1-.2.4.4,0,0,0-.1-.3h-2.6a.6.6,0,0,0-.6.3l-3.8,7.8-3.3-7.6h0c-.1-.2-.2-.4-.5-.4H112l-.2.2a.3.3,0,0,0,.1.4h1.3c.1.1.1.3.1.8l-.6,7.6c-.1.8-.1,1.1-.8,1.1h-.8a.4.4,0,0,0,0,.5h4a.4.4,0,0,0,0-.5h-.8a1,1,0,0,1-.8-.3,2,2,0,0,1-.1-1.5l.5-6.7,3.6,8.4a.4.4,0,0,0,.4.4c.2,0,.3-.2.3-.3h0l4.1-8.7v7.5c0,.3,0,.9-.2,1.1l-.7.2h-.8a.4.4,0,0,0,0,.5h4.6a.4.4,0,0,0,0-.5h-.7l-.4-.2a2.2,2.2,0,0,1-.2-1.1V27c0-.3,0-.8.1-.9Z"/>
        <path class="cls-3" d="M110.7,25.3h-3.8a.4.4,0,0,0,0,.5h.6a1,1,0,0,1,.7.3,10.8,10.8,0,0,1,.3,3.3v1.9c0,2.8-1.1,4.2-3.3,4.2s-3.4-1.3-3.4-4.2V27.8c0-1.7,0-1.8.9-1.9h.5a.3.3,0,0,0,.1-.4l-.2-.2H98.7a.4.4,0,0,0-.1.3.3.3,0,0,0,.1.2h.5c.9.1.9.2.9,1.9v3.8c0,1.9.4,3.1,1.4,3.9a5.1,5.1,0,0,0,2.9.9h.5a4.7,4.7,0,0,0,3.2-1.2,5.4,5.4,0,0,0,1.2-3.9V29.4a13.5,13.5,0,0,1,.2-3.2.9.9,0,0,1,.8-.3h.5a.4.4,0,0,0,0-.5Z"/>
        <path class="cls-3" d="M99,33.6h-.5a3.3,3.3,0,0,1-1.2,1.6,5,5,0,0,1-2.1.2c-1.4,0-1.6-.1-1.9-.3s-.3-.7-.3-1.7V27.8c0-1.7.1-1.8,1-1.9h.5a.3.3,0,0,0,.1-.4l-.2-.2H89.9a.4.4,0,0,0-.1.3v.2h.5c1.1.1,1.1.2,1.1,1.9v5.8c0,1.7-.1,1.8-1,1.9h-.6a.4.4,0,0,0,0,.5h8.5a12,12,0,0,0,.7-2.3Z"/>
        <path class="cls-3" d="M83.7,25h-.3a5.8,5.8,0,0,0-5.8,5.8c0,2.8,2.1,5.5,6.1,5.5h.2a5.7,5.7,0,0,0,5.7-5.7,5.6,5.6,0,0,0-1.5-3.9A6,6,0,0,0,83.7,25Zm4.1,6.2c0,2.2-1.2,4.4-3.8,4.4s-4.4-1.1-4.4-5.4,2.1-4.6,3.9-4.6,4.4,2.9,4.4,5.4Z"/>
        <path class="cls-3" d="M76.3,32.8h0a4,4,0,0,1-3.8,2.7h-.2c-3.4,0-5.7-2.6-5.7-6.3s2.8-5.8,5.4-5.8,3.5.9,3.9,2.8h0a.5.5,0,0,0,.7,0h0c-.2-1.2-.3-2.4-.3-2.8h-.6a15.1,15.1,0,0,0-3.5-.5H72a8.5,8.5,0,0,0-5.1,1.7h0a6.6,6.6,0,0,0-2.4,5.2,6.3,6.3,0,0,0,2.8,5.4,8.6,8.6,0,0,0,4.6,1.3h.3a11.5,11.5,0,0,0,3.1-.5l.7-.2H76A7.3,7.3,0,0,0,77,33h0A.5.5,0,0,0,76.3,32.8Z"/>
        <path class="cls-3" d="M131.3,10.8h.5c.8,0,.9.2.9,1.9v5.8c0,1.7,0,1.8-.9,1.9h-.4a.4.4,0,0,0,0,.5h4.3a.4.4,0,0,0,.1-.3.3.3,0,0,0-.1-.2h-.5c-.9-.1-1-.2-1-1.9V16.3c0-.4,0-.4.8-.4h5c.8,0,.8,0,.8.4v2.3c0,1.7,0,1.8-1,1.9h-.4a.4.4,0,0,0,0,.5h4.3a.4.4,0,0,0,.1-.3.3.3,0,0,0-.1-.2h-.5c-.9-.1-.9-.2-.9-1.9V12.7c0-1.7,0-1.8.9-1.9h.4a.3.3,0,0,0,.1-.4l-.2-.2h-4.1a.4.4,0,0,0-.1.3.3.3,0,0,0,.1.2h.4c1,.1,1,.2,1,1.9v1.9c0,.4,0,.4-.8.4H135c-.8,0-.8,0-.8-.4V12.7c0-1.7,0-1.8.9-1.9h.4a.3.3,0,0,0,.1-.4l-.2-.2h-4.2a.4.4,0,0,0-.1.3.3.3,0,0,0,.1.2Z"/>
        <path class="cls-3" d="M122.3,20.6h.1a6.9,6.9,0,0,0,2.8.6h.2c2.5,0,4.1-1.2,4.2-3s-.8-2.3-2.4-3.2l-1.5-.8c-.7-.4-1.6-1-1.6-1.9s.4-1.7,2.2-1.7a2.3,2.3,0,0,1,2.5,1.7h0a.5.5,0,0,0,.6,0h0a6.1,6.1,0,0,0-.3-2h-.7l-1.8-.2c-2.7,0-4,1.4-4,2.9a3.5,3.5,0,0,0,2.1,2.8l1.8,1c1.4.8,1.5,1.5,1.5,2.2s-.7,1.8-2.3,1.8h-.1a3.2,3.2,0,0,1-3.1-2.3h-.6A6.5,6.5,0,0,0,122.3,20.6Z"/>
        <path class="cls-3" d="M116.3,20.4h-.5a.4.4,0,0,0,0,.5h4.6a.4.4,0,0,0,.1-.3.3.3,0,0,0-.1-.2h-.5c-1-.1-1-.2-1-1.9V12.8c0-1.7,0-1.9,1-1.9h.5a.3.3,0,0,0,.1-.4l-.2-.2h-4.5a.4.4,0,0,0-.1.3v.2h.5c1,0,1,.3,1,1.9v5.7C117.3,20.2,117.3,20.3,116.3,20.4Z"/>
        <path class="cls-3" d="M104.7,12.4h0a2.8,2.8,0,0,1,.7-1.1,3.4,3.4,0,0,1,2-.4h.9c.4,0,.4,0,.4.4v7.2c0,1.7,0,1.8-.9,1.9h-.7a.4.4,0,0,0,0,.5h4.6a.4.4,0,0,0,.1-.3.3.3,0,0,0-.1-.2h-.6c-.9-.1-.9-.2-.9-1.9V11.3h0a.9.9,0,0,1,0-.4h1.6a3.3,3.3,0,0,1,1.9.4,1.8,1.8,0,0,1,.4,1.1h0a.4.4,0,0,0,.6,0h0a9.3,9.3,0,0,1,.2-2.4h-.5c-.2.4-.3.4-1.2.4h-6.8c-.8,0-1.2,0-1.3-.4h-.5a16.3,16.3,0,0,1-.6,2.4h0A.4.4,0,0,0,104.7,12.4Z"/>
        <path class="cls-3" d="M99.3,20.4h-.5a.4.4,0,0,0,0,.5h4.6a.4.4,0,0,0,.1-.3.3.3,0,0,0-.1-.2h-.5c-1-.1-1-.2-1-1.9V12.8c0-1.7,0-1.9,1-1.9h.5a.3.3,0,0,0,.1-.4l-.2-.2H98.8a.4.4,0,0,0-.1.3v.2h.5c1,0,1,.3,1,1.9v5.7C100.3,20.2,100.2,20.3,99.3,20.4Z"/>
        <path class="cls-3" d="M87.8,20.4H87a.4.4,0,0,0,0,.5h5a.4.4,0,0,0,0-.5h-.8c-.9-.1-.9-.3-.9-1.1V16.5c0-.5.1-.6.1-.6h.4c1.3,0,1.3.1,1.9,1.1l2,3.6h.1c.1.2.3.5.7.5h2.4a.4.4,0,0,0,0-.5h-.6c-.5-.1-.8-.5-1.1-1l-1.6-2.8v-.2a2.3,2.3,0,0,0-.7-.9c1.3-.3,2.7-1.1,2.7-2.7s-1.9-2.7-3.7-2.7H87.1c-.1.1-.1.1-.1.3a.3.3,0,0,0,.1.3h.5c1.1.1,1.1.2,1.1,1.2v7.3C88.7,20.2,88.7,20.3,87.8,20.4ZM90.3,15V11.9c0-1.2,0-1.3,1.4-1.3s2.6.9,2.6,2.3a1.9,1.9,0,0,1-.8,1.7,3.8,3.8,0,0,1-2.3.6h-.9Z"/>
        <path class="cls-3" d="M75.2,9.2h.7c.8.1.9.3.9,1.7v7.2c0,2,0,2.1-1.1,2.3h-.4a.4.4,0,0,0,0,.6h5c3.6,0,5.6-1.4,5.6-3.8a3.3,3.3,0,0,0-2.9-3.2h-.3c1.3-.6,2.1-1.3,2.1-2.6a2.6,2.6,0,0,0-1.7-2.4,8.8,8.8,0,0,0-3.5-.5l-4.5.2v.2c0,.1,0,.4.1.5Zm3.5,8.6V15c0-.3,0-.4,1.1-.4,3.5,0,4.1,1.9,4.1,3.1s-2,2.5-3.2,2.5a2,2,0,0,1-1.6-.5A3.2,3.2,0,0,1,78.7,17.8Zm1-3.9h-.9c-.1,0-.1-.2-.1-.4V9.6c0-.3.1-.4.2-.4h1c1.4,0,3,.6,3,2.4S82,13.8,79.7,13.9Z"/>
      </g>
      <path class="cls-3" d="M8.6,34.8c9.7,0,23.2,5.5,33,5.5,7,0,13.8-1.9,17.7-4.6a29.6,29.6,0,1,0-58.5,0A48.4,48.4,0,0,1,8.6,34.8Z"/>
      <polygon class="cls-2" points="49.1 23.9 50.3 24.4 52.9 22.6 49.1 23.9"/>
      <path class="cls-2" d="M5.5,21.9,2.4,20.8l.2-.4L6,21.6H6l.5-.3h.2L2.9,19.6l.2-.4,8.4,3.4h.3L3.4,18.4l.2-.4,8.9,4.1h.1L4,17.2l.2-.4,12.4,6.8.4-.7a110.7,110.7,0,0,0-9.3-7.8,110.3,110.3,0,0,0,10.5,6l.5-.7L8.2,11.2l.3-.3L17,18.2,9.1,10.2l.3-.3,8.9,8.6L10,9.3l.3-.3L18,17.2,11,8.4l.3-.3,9,10.9.7-.5A110.1,110.1,0,0,0,15.3,7.9a110.3,110.3,0,0,0,7.4,9.5l.8-.4h0L17.1,4.4l.4-.2,5.2,10L18.3,3.9l.4-.2,5,11.3L19.5,3.4h.4l4,10.5L20.7,2.9h.4l4.2,13.4h0l.9-.2A110.2,110.2,0,0,0,24.9,4a110.4,110.4,0,0,0,3.3,11.5H29l-1.1-14h.4l1.1,11.2L29.2,1.5h.4l.4,12.4.4-12.4H31l-.2,11.2L31.8,1.5h.4l-1.1,14H32A110.5,110.5,0,0,0,35.3,4.1,111.1,111.1,0,0,0,34,15.9l.8.3L39,2.8h.4L36.2,13.8l4-10.5h.4L36.4,15.1l5-11.3.4.2L37.5,14.3l5.2-10,.4.2L36.8,16.9h0l.8.4a110.6,110.6,0,0,0,7.4-9.4,111.1,111.1,0,0,0-5.6,10.6l.7.6L48.8,8.3l.3.3-7,8.8,7.7-8.2.3.3-8.3,9.2L50.7,10l.3.3-7.9,7.9L51.6,11l.3.3L41.5,20.5h0l.5.6a110.5,110.5,0,0,0,10.4-6,110.6,110.6,0,0,0-9.2,7.7l.5.8L55.9,17l.2.4-9.8,5.5,10.2-4.7.2.4-9.5,4.6h.2L57,19.3l.2.4-9,3.8h.2l6-2,.9-.6.3.2,2-.6.2.4-1.7.6,2.4,1.9.8.4a30,30,0,0,0-58.5.7H.8l.4-.2h.2Z"/>
      <path class="cls-4" d="M.5,36.3a49.3,49.3,0,0,1,8.1-.9c9.7,0,23.2,5.5,33,5.5,7.2,0,14.2-2,18-4.8a30.2,30.2,0,0,0-.4-12.2l-4.1-2.3-4.8,3.3-3.3-1.2c-1.1.5-7.8,5-7.8,5l-2.6-1.9L34,26.3l-3.7-2.7-4.2,2.9-4.9,2.7c-.2,0-5.7-4.4-5.7-4.4L13,22.1l-2.2,1.1h-.1L9,22.7,7,21.7.8,24.5H.7A30.2,30.2,0,0,0,.5,36.3Z"/>
    </g>
  </g>
</svg>
