<?xml version="1.0" encoding="utf-8"?>
<!-- Generator: Adobe Illustrator 21.0.0, SVG Export Plug-In . SVG Version: 6.00 Build 0)  -->
<svg version="1.1" id="Layer_1" xmlns="http://www.w3.org/2000/svg" xmlns:xlink="http://www.w3.org/1999/xlink" x="0px" y="0px"
	 viewBox="0 0 155 41.7" style="enable-background:new 0 0 155 41.7;" xml:space="preserve">
<style type="text/css">
	.st0{fill:#013366;}
	.st1{fill:#FDB913;}
	.st2{fill:#FFFFFF;}
	.st3{fill:#4C81AF;}
</style>
<rect x="-1.1" y="-1" class="st0" width="156.9" height="43.6"/>
<title>Artboard 1</title>
<title>Artboard 1</title>
<rect x="75.2" y="40.3" class="st1" width="68.5" height="0.8"/>
<g>
	<g>
		<path class="st2" d="M146.2,35.9c-0.2,0-0.4,0-0.6,0c-0.2,0-0.4,0-0.6,0c-0.2,0-0.4,0-0.6,0c-0.3,0-0.5,0-0.8,0H143
			c-0.2-0.2-0.2-0.4-0.1-0.6l0.5,0h0.3c0.2,0,0.4-0.1,0.6-0.2c0.3-0.4,0.5-0.8,0.6-1.3l3.4-8.4c0.1-0.2,0.2-0.4,0.4-0.4
			c0.2,0,0.3,0.2,0.3,0.3l3.7,8.7c0.2,0.6,0.5,1.2,1.1,1.3l0.2,0c0.2,0.2,0.2,0.4,0.1,0.6l-0.3,0c-0.3,0-0.6,0-0.9,0
			c-0.3,0-0.6,0-0.9,0c-0.6,0-1,0-1.5,0.1h-0.7c-0.2-0.2-0.2-0.4-0.1-0.6l0.5,0h0.3c0.6,0,0.8-0.1,0.8-0.4c0-0.3-0.1-0.5-0.2-0.8
			l-0.6-1.3l-0.1-0.3C150,32,150,32,149.3,32h-2.4c-0.5,0-0.5,0-0.7,0.4c0,0.1-0.6,1.5-0.6,1.5c-0.1,0.3-0.2,0.6-0.2,0.9
			c0,0.3,0.4,0.4,0.8,0.5h0.2l0.5,0c0.2,0.2,0.2,0.4,0.1,0.6l0,0H146.2z M146.6,31.3c0,0,0.1,0,0.2,0c0.1,0,0.2,0,0.2,0l2.1,0
			c0.1,0,0.4-0.1,0.5-0.1c0,0,0,0,0,0c0,0-0.1-0.2-0.1-0.3l-1.2-2.9c0,0,0-0.1,0-0.1c-0.1-0.2-0.1-0.3-0.2-0.3
			c-0.1,0-0.2,0.3-0.2,0.4l-1.3,3.1C146.6,31.2,146.6,31.3,146.6,31.3C146.6,31.3,146.6,31.3,146.6,31.3z"/>
		<path class="st2" d="M148.7,25c0.2,0,0.2,0.2,0.2,0.3l3.6,8.5c0.3,0.6,0.5,1.4,1.2,1.6h0.2c0.1,0.1,0.1,0.3,0,0.4
			c-0.2,0-0.1,0-0.3,0c-0.6,0-1.2-0.1-1.9-0.1s-1,0-1.5,0.1h-0.7c-0.1-0.1-0.1-0.3,0-0.4h0.4h0.3c0.4,0,0.9-0.1,0.9-0.5
			c0-0.3-0.1-0.6-0.2-0.8l-0.6-1.3c-0.4-0.9-0.2-0.9-1.1-0.9h-2.4c-0.7,0-0.6,0.1-0.9,0.7l-0.5,1.3c-0.1,0.3-0.2,0.6-0.2,0.9
			c0,0.5,0.5,0.5,0.9,0.6h0.2l0.4,0.1c0.1,0.1,0.1,0.3,0,0.4h-0.7c-0.4,0-0.8-0.1-1.2-0.1c-0.4,0-0.9,0.1-1.4,0.1H143
			c-0.1-0.1-0.1-0.3,0-0.4h0.4h0.3c0.2,0,0.5-0.1,0.7-0.2c0.3-0.4,0.5-0.9,0.7-1.3l3.4-8.4C148.4,25.3,148.5,25,148.7,25
			 M146.9,31.4c0.1,0,0.3,0,0.3,0h2.1c0.1,0,0.5-0.1,0.5-0.1c0-0.1-0.1-0.4-0.1-0.4l-1.2-2.9c0-0.1-0.1-0.5-0.3-0.5
			c-0.2,0-0.3,0.4-0.3,0.5l-1.2,3.1c0,0.1,0,0.1,0,0.2C146.5,31.4,146.7,31.4,146.9,31.4 M148.7,24.8c-0.3,0-0.4,0.3-0.5,0.5
			l-3.4,8.5c-0.2,0.5-0.4,0.9-0.6,1.3c-0.1,0.1-0.3,0.2-0.5,0.2h-0.3H143h-0.1l-0.1,0.1c-0.2,0.2-0.2,0.5,0,0.7l0.1,0.1h0.1h0.7
			c0.2,0,0.5,0,0.8,0c0.2,0,0.4,0,0.6,0c0.2,0,0.4,0,0.6,0c0.2,0,0.4,0,0.6,0h0.7h0.1L147,36c0.2-0.2,0.2-0.5,0-0.7l-0.1-0.1l-0.1,0
			l-0.4-0.1l-0.3,0c-0.5-0.1-0.7-0.1-0.7-0.4c0-0.3,0.1-0.6,0.2-0.8l0.5-1.3c0-0.1,0.1-0.2,0.1-0.3c0.1-0.3,0.1-0.3,0.6-0.3h2.4
			c0.6,0,0.6,0,0.8,0.5c0,0.1,0.1,0.2,0.1,0.3l0.6,1.3c0.1,0.3,0.2,0.5,0.2,0.8c0,0.1,0,0.3-0.7,0.3h-0.3h-0.4h-0.1l-0.1,0.1
			c-0.2,0.2-0.2,0.5,0,0.7l0.1,0.1h0.1h0.7c0.5-0.1,0.9-0.1,1.5-0.1c0.3,0,0.6,0,0.9,0c0.3,0,0.6,0,0.9,0h0.3h0.1l0.1-0.1
			c0.2-0.2,0.2-0.5,0-0.7l-0.1-0.1h-0.1h-0.2c-0.5-0.1-0.7-0.7-0.9-1.2l-0.1-0.2l-3.6-8.5l0,0C149.1,25.1,149,24.8,148.7,24.8
			L148.7,24.8z M146.7,31.2C146.7,31.2,146.7,31.2,146.7,31.2l1.3-3.1l0,0v0c0,0,0.1-0.2,0.1-0.2c0,0.1,0.1,0.2,0.1,0.2
			c0,0.1,0,0.1,0.1,0.1l1.2,2.9c0,0.1,0.1,0.1,0.1,0.2c-0.1,0-0.2,0-0.3,0h-2.1c0,0,0,0-0.1,0c-0.1,0-0.1,0-0.2,0
			C146.8,31.2,146.8,31.2,146.7,31.2L146.7,31.2z"/>
	</g>
	<g>
		<path class="st2" d="M137.3,35.8c-0.2-0.2-0.2-0.4-0.1-0.6l0.5,0c0.9-0.1,1-0.2,1-1.9v-5.7c0-1.7,0-1.9-1-2h-0.4
			c-0.1-0.1-0.2-0.1-0.2-0.3c0-0.1,0-0.3,0.1-0.3l2.2,0h2.2c0.1,0,0.2,0.1,0.2,0.2c0,0.2,0,0.3-0.1,0.4l-0.5,0c-0.9,0.1-1,0.2-1,2
			v5.7c0,1.7,0,1.8,1,1.9h0.4c0.1,0.1,0.2,0.1,0.2,0.3c0,0.1,0,0.3-0.1,0.3l0,0H137.3z"/>
		<path class="st2" d="M141.7,25.1c0.1,0,0.1,0.3,0,0.4h-0.4c-1,0.1-1.1,0.3-1.1,2v5.7c0,1.7,0,1.9,1.1,2h0.4c0.1,0.1,0.1,0.4,0,0.4
			c-0.9,0-1.4,0-2.1,0s-1.3,0-2.2,0c-0.1-0.1-0.1-0.3,0-0.4h0.4c1-0.1,1.1-0.3,1.1-2v-5.7c0-1.7,0-2-1.1-2h-0.4
			c-0.1-0.1-0.1-0.4,0-0.4c0.9,0,1.5,0,2.2,0S140.8,25.1,141.7,25.1 M141.7,24.9h-2.1h-2.2h-0.1l-0.1,0c-0.2,0.1-0.1,0.4-0.1,0.4
			c0,0.2,0.1,0.3,0.2,0.3l0,0h0.1h0.4c0.8,0,0.9,0.1,0.9,1.9v5.7c0,1.7-0.1,1.7-0.9,1.8l-0.4,0h-0.1l-0.1,0.1
			c-0.2,0.2-0.2,0.5,0,0.7l0.1,0.1h0.1h2.2h2.1h0.1l0.1,0c0.2-0.1,0.1-0.4,0.1-0.4c0-0.2-0.1-0.3-0.2-0.3l0,0h-0.1h-0.4
			c-0.8-0.1-0.9-0.1-0.9-1.8v-5.7c0-1.7,0.1-1.8,0.9-1.9l0.4,0h0l0,0c0.2-0.1,0.2-0.3,0.2-0.5C141.9,25,141.8,24.9,141.7,24.9
			L141.7,24.9z"/>
	</g>
	<g>
		<path class="st2" d="M127,35.8c-0.1-0.1-0.2-0.2-0.2-0.3s0-0.2,0.1-0.3l0.4-0.1c0.9-0.1,0.9-0.2,0.9-1.9l0-6.1
			c0-1.2-0.1-1.4-0.8-1.5l-0.6-0.1c-0.2-0.1-0.2-0.4-0.1-0.5l0-0.1l0.1,0c1.1-0.1,2.4-0.1,4-0.1c0.2,0,0.3,0,0.5,0
			c0.9,0,1.8,0.2,2.7,0.5c0.9,0.3,1.5,1.2,1.5,2.1c0,1.3-0.9,1.9-1.9,2.3c0,0,0.1,0.1,0.3,0.1c1.5,0.2,2.5,1.3,2.6,2.8
			c0,2.1-1.9,3.3-5.1,3.3H127z M131,30.3c-1,0-1,0.1-1,0.3l0,2.4c-0.1,0.6,0.1,1.2,0.4,1.7c0.3,0.3,0.8,0.4,1.2,0.4
			c0.1,0,0.1,0,0.2,0c1.1,0,2.9-0.3,2.9-2.2C134.6,32,134.2,30.3,131,30.3z M130.9,25.6c-0.2,0-0.5,0-0.7,0.1c-0.1,0-0.2,0-0.2,0.3
			l-0.1,3.3c0,0.4,0,0.4,0.5,0.4c0.1,0,0.2,0,0.4,0c2.1-0.1,2.9-0.6,2.9-2c0-1.5-1.5-2.1-2.7-2.1L130.9,25.6z"/>
		<path class="st2" d="M131.3,24.9c0.9,0,1.8,0.2,2.7,0.4c0.9,0.3,1.4,1.1,1.4,2c0,1.2-0.8,1.8-1.9,2.2c0,0.2,0.1,0.2,0.4,0.2
			c1.4,0.2,2.5,1.3,2.5,2.7c0,1.9-1.6,3.2-5,3.2c-0.5,0-1.5,0-2.3,0s-1.5,0-2.2,0c-0.1-0.1-0.1-0.3,0-0.4c0,0,0,0,0,0l0.3,0
			c1-0.1,1-0.3,1-2l0-6.1c0-1.2-0.1-1.5-0.9-1.6l-0.6-0.1c-0.1-0.1-0.1-0.4,0-0.4c1-0.1,2.3-0.1,4-0.1C131,25,131.1,24.9,131.3,24.9
			 M130.4,29.7c0.1,0,0.3,0,0.4,0c1.9-0.1,3-0.5,3-2.1s-1.4-2.2-2.8-2.2c0,0-0.1,0-0.1,0c-0.2,0-0.5,0-0.7,0.1
			c-0.2,0-0.3,0.1-0.3,0.4l-0.1,3.3C129.9,29.7,129.9,29.7,130.4,29.7 M131.5,35.3c0.1,0,0.1,0,0.2,0c1.7,0,3-0.6,3-2.3
			c0-1.3-0.8-2.8-3.7-2.8c-1,0-1.1,0.1-1.1,0.4l0,2.4c-0.1,0.6,0.1,1.2,0.4,1.8C130.6,35.1,131.1,35.3,131.5,35.3 M131.3,24.7
			c-0.2,0-0.4,0-0.5,0c0,0,0,0,0,0c-1.6,0-2.9,0-4,0.1c0,0,0,0,0,0c-0.1,0-0.2,0.1-0.2,0.2c-0.1,0.2,0,0.5,0.1,0.6l0,0l0.1,0
			l0.6,0.1c0.6,0.1,0.7,0.2,0.7,1.4l0,6.1c0,1.7,0,1.7-0.8,1.8l-0.3,0.1l-0.1,0l0,0c-0.2,0.2-0.2,0.5,0,0.7l0.1,0.1h0.1h2.2h2.3
			c3.3,0,5.2-1.2,5.2-3.4c-0.1-1.5-1.2-2.7-2.7-2.9c0.9-0.4,1.7-1,1.7-2.3c0-1-0.6-1.9-1.6-2.2C133.2,24.9,132.2,24.7,131.3,24.7
			L131.3,24.7z M130.4,29.5c-0.3,0-0.4,0-0.4,0c0,0,0-0.1,0-0.2l0.1-3.3c0-0.2,0-0.2,0-0.2h0l0.1,0c0.2-0.1,0.4-0.1,0.7-0.1
			c0,0,0.1,0,0.1,0c1.2,0,2.6,0.5,2.6,2c0,1.3-0.8,1.8-2.8,1.9C130.7,29.5,130.5,29.5,130.4,29.5L130.4,29.5z M130.4,34.7
			c-0.3-0.5-0.4-1.1-0.4-1.6l0.1-2.4c0-0.2,0-0.2,0.9-0.2c3.1,0,3.5,1.6,3.5,2.6c0,1.8-1.8,2.1-2.8,2.1c-0.1,0-0.1,0-0.2,0
			C131.1,35.1,130.7,34.9,130.4,34.7L130.4,34.7z"/>
	</g>
	<g>
		<path class="st2" d="M120.9,35.9c-0.2-0.2-0.2-0.4-0.1-0.6l0.5,0h0.2c0.2,0,0.5-0.1,0.7-0.2c0.2-0.2,0.2-0.8,0.2-1.1v-7.5
			l-4.1,8.7c-0.1,0.2-0.2,0.4-0.4,0.4c-0.2,0-0.4-0.2-0.4-0.4l-3.6-8.3l-0.5,6.7c-0.1,0.6-0.1,1.2,0.1,1.5c0.2,0.2,0.4,0.3,0.8,0.3
			h0.7c0.2,0.2,0.2,0.4,0.1,0.6l-0.7,0c-0.4-0.1-0.9-0.1-1.3-0.1c-0.2,0-0.4,0-0.6,0c-0.2,0-0.4,0-0.6,0h-0.7
			c-0.1-0.1-0.2-0.2-0.2-0.3s0-0.2,0.1-0.3l0.5-0.1h0.3c0.7-0.1,0.7-0.3,0.8-1.1l0.6-7.6c0-0.4,0-0.7-0.1-0.8
			c-0.1-0.1-0.2-0.1-0.5-0.1H112c-0.2-0.1-0.2-0.3-0.2-0.4c0-0.1,0.1-0.2,0.2-0.2h2.6c0.4,0,0.5,0.2,0.5,0.4l0,0.1l3.3,7.6l3.8-7.8
			c0.2-0.3,0.4-0.3,0.6-0.3h2.6c0.1,0.1,0.2,0.3,0.2,0.3c0,0.1,0,0.2-0.1,0.2l-0.5,0c0,0-0.3,0-0.3,0c-0.2,0-0.4,0-0.5,0.1
			c-0.1,0.1-0.1,0.6-0.1,0.9l0,0.2v7c0,0.3,0,0.9,0.2,1.1c0.1,0.1,0.2,0.2,0.4,0.2h0.6c0.2,0.2,0.2,0.4,0.1,0.6l-0.8,0h-1.3
			c-0.3,0-0.6,0-0.9,0c-0.3,0-0.6,0-0.9,0H120.9z"/>
		<path class="st2" d="M114.6,25.1c0.4,0,0.4,0.2,0.5,0.5l3.4,7.8l3.9-8c0.1-0.2,0.3-0.2,0.5-0.2h2.6c0.1,0,0.1,0.3,0,0.4H125h-0.2
			c0,0,0,0-0.1,0c-0.2,0-0.4,0.1-0.5,0.2c-0.2,0.2-0.1,0.9-0.1,1.2v7c0,0.3,0,1,0.2,1.2c0.1,0.1,0.3,0.2,0.5,0.2c0,0,0,0,0,0h0.3
			h0.3c0.1,0.1,0.1,0.3,0,0.4h-0.7c0,0-0.9,0-1.3,0c-0.6,0-1.2,0.1-1.8,0.1h-0.6c-0.1-0.1-0.1-0.3,0-0.4h0.4h0.2
			c0.2,0,0.5-0.1,0.7-0.2c0.3-0.2,0.3-0.9,0.3-1.2v-7.7h-0.1l-4.2,8.9c-0.1,0.1-0.1,0.3-0.3,0.3c-0.2,0-0.3-0.2-0.3-0.3l-3.7-8.6
			h-0.1l-0.5,7c-0.1,1-0.2,1.8,1,1.9h0.2h0.4c0.1,0.1,0.1,0.3,0,0.4h-0.7c-0.4-0.1-0.9-0.1-1.3-0.1c-0.4,0-0.8,0-1.2,0h-0.7
			c0,0,0,0,0,0c-0.1-0.1-0.1-0.3,0-0.4l0.5,0h0.3c0.8-0.1,0.8-0.5,0.9-1.2l0.6-7.5c0.1-0.8,0-1-0.7-1h-0.3H112
			c-0.1-0.1-0.1-0.4,0-0.4H114.6 M114.6,24.9H112c-0.1,0-0.2,0.1-0.3,0.3c0,0.2,0,0.4,0.2,0.5l0,0h0h0.4h0.3c0.3,0,0.4,0,0.5,0.1
			c0.1,0.1,0.1,0.4,0,0.7l-0.6,7.5c-0.1,0.8-0.1,1-0.7,1l-0.2,0l-0.5,0.1l-0.1,0l0,0c-0.2,0.2-0.2,0.5,0,0.7l0.1,0.1l0.1,0h0.7
			c0.2,0,0.4,0,0.6,0c0.2,0,0.4,0,0.6,0c0.4,0,0.9,0,1.3,0.1l0.7,0h0.1l0.1-0.1c0.2-0.2,0.2-0.5,0-0.7l-0.1-0.1h-0.1h-0.4h-0.2
			c-0.3,0-0.5-0.1-0.7-0.3c-0.2-0.3-0.2-0.8-0.1-1.4l0.5-6.3l3.4,8c0,0.2,0.2,0.5,0.5,0.5c0.3,0,0.4-0.2,0.4-0.4c0,0,0,0,0-0.1
			l3.9-8.3V34c0,0.2,0,0.8-0.2,1c-0.2,0.1-0.4,0.1-0.6,0.2l-0.2,0h-0.4h-0.1l-0.1,0.1c-0.2,0.2-0.2,0.5,0,0.7l0.1,0.1h0.1h0.6
			c0.3,0,0.6,0,0.9,0c0.3,0,0.6,0,0.9,0h1.3h0.7h0.1l0.1-0.1c0.2-0.2,0.2-0.5,0-0.7l-0.1-0.1h-0.1H125h-0.3c0,0,0,0,0,0
			c-0.1,0-0.3,0-0.3-0.1c-0.1-0.2-0.1-0.8-0.1-1l0-7c0-0.1,0-0.1,0-0.2c0-0.2,0-0.8,0.1-0.9c0.1-0.1,0.2-0.1,0.4-0.1l0,0l0,0h0.2
			h0.4h0.1l0,0c0.1-0.1,0.2-0.2,0.2-0.3c0,0,0-0.3-0.1-0.4l-0.1,0h-0.1h-2.6c-0.2,0-0.5,0-0.7,0.3l-3.7,7.6l-3.2-7.4l0-0.1
			C115.2,25.2,115.1,24.9,114.6,24.9L114.6,24.9z"/>
	</g>
	<g>
		<path class="st2" d="M104.4,36.1c-1,0-2-0.3-2.9-0.9c-0.9-0.7-1.4-2-1.4-3.9v-3.8c0-1.7,0-1.8-0.9-1.9h-0.4
			c-0.1-0.1-0.2-0.1-0.2-0.3c0-0.1,0-0.3,0.1-0.3c0.2,0,0.3,0,0.5,0c0.3,0,0.5,0,0.8,0c0.3,0,0.6,0,0.9,0h2.1c0.1,0,0.2,0.1,0.2,0.2
			c0,0.1,0,0.3-0.1,0.4l-0.5,0c-0.9,0.1-0.9,0.2-0.9,1.9V31c0,2.9,1.1,4.2,3.4,4.2c2.2,0,3.3-1.4,3.3-4.2l0.1-1.9
			c0.1-1.1,0-2.2-0.3-3.3c-0.2-0.2-0.4-0.3-0.7-0.3l-0.5,0c-0.2-0.2-0.2-0.4-0.1-0.6c0.2,0,0.3,0,0.5,0c0.2,0,0.4,0,0.5,0
			c0.3,0,0.6,0,1,0h1.8c0.1,0.1,0.2,0.2,0.2,0.3c0,0.1,0,0.2-0.1,0.3c0,0-0.5,0-0.5,0c-0.3,0-0.6,0.1-0.8,0.3
			c-0.2,1-0.3,2.1-0.2,3.2V31c0.1,1.4-0.3,2.8-1.2,3.9c-0.9,0.8-2,1.2-3.2,1.2l-0.2,0C104.6,36.1,104.5,36.1,104.4,36.1z"/>
		<path class="st2" d="M106.9,25.1c0.7,0,1.3,0,1.9,0c0.7,0,1.2,0,1.8,0c0.1,0.1,0.1,0.3,0,0.4c0,0,0,0,0,0h-0.4c0,0,0,0-0.1,0
			c-0.3,0-0.6,0.1-0.8,0.4c-0.2,1.1-0.3,2.2-0.2,3.3V31c0.1,1.4-0.3,2.8-1.2,3.8c-0.8,0.8-1.9,1.2-3.1,1.2c-0.1,0-0.1,0-0.2,0
			c-0.1,0-0.2,0-0.3,0c-1,0-2-0.3-2.8-0.9c-0.9-0.7-1.3-1.9-1.3-3.8v-3.8c0-1.7,0-1.9-1-2h-0.4c-0.1-0.1-0.1-0.3,0-0.4
			c0.8,0,1.4,0,2.1,0s1.3,0,2.1,0c0.1,0,0.1,0.3,0,0.4h-0.4c-1,0.1-1,0.3-1,2V31c0,2.6,0.8,4.3,3.4,4.3s3.4-1.8,3.4-4.3l0.1-1.9
			c0.1-1.1,0-2.2-0.3-3.3c-0.2-0.2-0.5-0.3-0.8-0.3c0,0,0,0-0.1,0h-0.4C106.8,25.4,106.8,25.2,106.9,25.1 M106.9,24.9L106.9,24.9
			l-0.1,0.1c-0.2,0.2-0.2,0.5,0,0.7l0.1,0.1h0.1h0.4l0.1,0c0.2,0,0.4,0.1,0.6,0.2c0.3,1,0.4,2.1,0.3,3.2l-0.1,1.9
			c0,2.8-1,4.1-3.2,4.1c-2.2,0-3.2-1.3-3.2-4.1v-3.5c0-1.7,0-1.7,0.8-1.8l0.4,0h0l0,0c0.2-0.1,0.2-0.3,0.2-0.5
			c0-0.2-0.2-0.3-0.3-0.3h-2.1c-0.3,0-0.6,0-0.9,0c-0.4,0-0.7,0-1.2,0h-0.1l-0.1,0c-0.2,0.1-0.1,0.4-0.1,0.4c0,0.1,0.1,0.3,0.2,0.3
			l0,0h0.1h0.4c0.8,0,0.8,0.1,0.8,1.8v3.8c0,1.9,0.4,3.2,1.4,3.9c0.9,0.6,1.9,0.9,3,0.9c0.1,0,0.2,0,0.3,0c0,0,0.1,0,0.2,0
			c1.2,0,2.3-0.4,3.2-1.2c0.9-1.1,1.4-2.6,1.3-4l0-1.8c-0.1-1.1,0-2.1,0.2-3.2c0.2-0.2,0.4-0.3,0.6-0.3l0.1,0l0.4,0h0.1l0.1-0.1
			c0.2-0.2,0.2-0.5,0-0.7l-0.1-0.1h-0.1h-1.8c-0.3,0-0.6,0-1,0C107.6,24.9,107.3,24.9,106.9,24.9L106.9,24.9z"/>
	</g>
	<g>
		<path class="st2" d="M90,35.8c-0.2-0.2-0.2-0.4-0.1-0.6l0.6,0c0.9-0.1,1-0.2,1-1.9l0-5.8c0-1.7,0-1.8-1.1-1.9h-0.4
			c-0.1,0-0.2-0.1-0.2-0.2c0-0.1,0-0.3,0.1-0.3l2.4,0h2.2c0.1,0,0.2,0.1,0.2,0.2c0,0.2,0,0.3-0.1,0.4l-0.5,0c-0.9,0.1-1,0.2-1,1.9
			v5.6c0,1,0.1,1.4,0.3,1.7c0.3,0.3,0.4,0.3,1.9,0.3c0.2,0,0.4,0,0.6,0c0.5,0,1-0.1,1.5-0.2c0.5-0.4,1-0.9,1.2-1.6
			c0.1-0.1,0.1-0.1,0.2-0.1c0.2,0,0.4,0.1,0.4,0.2c-0.2,0.8-0.4,1.6-0.7,2.3l0,0.1H90z"/>
		<path class="st2" d="M94.4,25.1c0.1,0,0.1,0.3,0,0.4H94c-1,0.1-1.1,0.3-1.1,2v5.6c0,1,0.1,1.4,0.4,1.7c0.3,0.3,0.5,0.4,1.9,0.4
			c0.2,0,0.4,0,0.6,0c0.5,0,1.1-0.1,1.6-0.2c0.6-0.4,1-1,1.2-1.6c0,0,0.1,0,0.1,0c0.1,0,0.3,0.1,0.3,0.1c-0.2,0.8-0.4,1.5-0.7,2.2
			c-0.9,0-2.6,0-4.4,0h-1.6c-0.7,0-1.3,0-2.3,0c-0.1-0.1-0.1-0.3,0-0.4h0.5c1-0.1,1.1-0.3,1.1-2l0-5.8c0-1.7,0-1.9-1.2-2h-0.4
			c-0.1-0.1-0.1-0.3,0-0.4c1,0,1.6,0,2.3,0C92.9,25.1,93.5,25.1,94.4,25.1 M94.4,24.9h-2.2h-2.3h-0.1l-0.1,0
			c-0.1,0.1-0.2,0.3-0.2,0.4c0,0.2,0.1,0.3,0.2,0.3l0,0h0.1h0.4c0.9,0,1,0.1,1,1.8l0,5.8c0,1.7-0.1,1.7-0.9,1.8l-0.5,0h-0.1
			l-0.1,0.1c-0.2,0.2-0.2,0.5,0,0.7l0.1,0.1H90h2.3h1.6h4.4h0.1l0.1-0.1c0.3-0.7,0.6-1.5,0.8-2.3c0-0.3-0.3-0.4-0.5-0.4
			c-0.1,0-0.2,0-0.3,0.1l0,0l0,0.1c-0.2,0.6-0.6,1.1-1.2,1.5c-0.5,0.2-1,0.2-1.5,0.2c-0.2,0-0.4,0-0.6,0c-1.4,0-1.5-0.1-1.8-0.3
			c-0.3-0.2-0.3-0.6-0.3-1.6v-5.6c0-1.7,0.1-1.7,0.9-1.8l0.4,0h0l0,0c0.2-0.1,0.2-0.3,0.2-0.5C94.6,25,94.5,24.9,94.4,24.9
			L94.4,24.9z"/>
	</g>
	<g>
		<path class="st2" d="M83.7,36c-4,0-6.1-2.8-6.1-5.5c0-3.2,2.6-5.8,5.8-5.8c0.1,0,0.2,0,0.3,0c4.1,0,5.9,2.9,5.9,5.6
			c0,3.1-2.6,5.7-5.7,5.7L83.7,36z M83.4,25.4c-1.8,0-3.9,1.2-3.9,4.6c0,2,0.9,5.4,4.4,5.4c1.9,0,3.8-1.4,3.8-4.4l0-0.1
			C87.7,28.4,86.6,25.4,83.4,25.4z"/>
		<path class="st2" d="M83.4,24.8C83.4,24.8,83.4,24.8,83.4,24.8c0.1,0,0.2,0,0.3,0c3.9,0,5.9,2.7,5.9,5.5c0,3.1-2.5,5.6-5.6,5.6
			c0,0,0,0,0,0c-0.1,0-0.1,0-0.2,0c-3.7,0-6-2.5-6-5.4C77.7,27.4,80.2,24.8,83.4,24.8 M83.9,35.5c2,0,3.9-1.4,3.9-4.6h0
			c0-2.7-1.2-5.5-4.4-5.5c-1.8,0-4,1.1-4,4.7C79.4,32.4,80.6,35.5,83.9,35.5 M83.4,24.6c-3.2,0-5.9,2.6-5.9,5.9
			c0,2.8,2.1,5.6,6.2,5.6c0.1,0,0.1,0,0.2,0c3.2,0,5.8-2.6,5.8-5.8c0-2.8-1.9-5.7-6.1-5.7C83.6,24.6,83.5,24.6,83.4,24.6L83.4,24.6
			L83.4,24.6z M83.9,35.3c-3.4,0-4.3-3.3-4.3-5.3c0-3.3,2-4.5,3.8-4.5c3.1,0,4.2,2.9,4.2,5.3V31h0C87.5,34.1,85.6,35.3,83.9,35.3
			L83.9,35.3z"/>
	</g>
	<g>
		<path class="st2" d="M71.9,36.1c-1.6,0-3.2-0.5-4.6-1.3c-1.8-1.2-2.9-3.2-2.8-5.4c0-2,0.9-4,2.4-5.2c1.5-1.1,3.3-1.7,5.1-1.7
			l0.2,0c1.2,0,2.3,0.2,3.5,0.5C75.8,23,76,23,76.1,23h0.1l0.1,0.1c0,0.4,0.1,1.6,0.3,2.8c-0.1,0.2-0.2,0.2-0.4,0.2
			c-0.1,0-0.2,0-0.3-0.1c-0.4-1.9-1.7-2.8-3.9-2.8c-2.6,0-5.4,1.5-5.4,5.8c0,3.7,2.4,6.3,5.7,6.3l0.2,0c1.7,0,3.2-1.1,3.8-2.7
			c0.1-0.1,0.2-0.1,0.3-0.1c0.1,0,0.3,0.1,0.4,0.2c-0.1,1.1-0.4,2-0.9,2.8c-0.3,0.1-0.5,0.2-0.7,0.2c-1,0.3-2.1,0.4-3.1,0.5
			C72.1,36.1,72,36.1,71.9,36.1z"/>
		<path class="st2" d="M72,22.6c0.1,0,0.2,0,0.2,0c1.2,0,2.3,0.2,3.4,0.5c0.2,0.1,0.3,0.1,0.5,0.1c0,0,0,0,0.1,0
			c0,0.5,0.1,1.7,0.3,2.9c-0.1,0.1-0.2,0.1-0.3,0.1S76,26.1,76,26c-0.3-1.3-1.2-2.8-4-2.8c-3,0-5.5,1.9-5.5,5.9s2.7,6.4,5.8,6.4
			c0.1,0,0.1,0,0.2,0c1.8,0,3.3-1.1,3.9-2.8c0.1,0,0.1-0.1,0.2-0.1c0.1,0,0.2,0,0.3,0.1c-0.1,1-0.5,1.9-0.9,2.7
			c-0.2,0-0.5,0.1-0.7,0.2c-1,0.3-2,0.4-3.1,0.5c-0.1,0-0.2,0-0.3,0c-1.6,0-3.2-0.5-4.5-1.3c-1.8-1.2-2.8-3.2-2.8-5.3
			c0-2,0.8-3.9,2.4-5.2C68.4,23.2,70.2,22.6,72,22.6 M72,22.4c-1.8,0-3.7,0.6-5.1,1.7c-1.6,1.3-2.5,3.3-2.5,5.3
			c-0.1,2.2,1,4.3,2.8,5.5c1.4,0.9,3,1.3,4.6,1.3c0.1,0,0.2,0,0.3,0c1.1,0,2.1-0.2,3.1-0.5c0.2-0.1,0.4-0.1,0.7-0.2l0.1,0l0-0.1
			c0.5-0.9,0.8-1.8,1-2.8l0-0.1L77,32.6c-0.1-0.1-0.3-0.2-0.5-0.2c-0.1,0-0.2,0-0.3,0.1l-0.1,0l0,0.1c-0.6,1.6-2,2.6-3.7,2.6
			c-0.1,0-0.1,0-0.2,0c-3.3,0-5.6-2.5-5.6-6.2c0-4.2,2.7-5.7,5.3-5.7c2.2,0,3.4,0.9,3.8,2.7l0,0.1l0.1,0c0.1,0.1,0.3,0.1,0.4,0.1
			s0.3-0.1,0.4-0.1l0.1-0.1l0-0.1c-0.2-1.2-0.3-2.4-0.3-2.8v-0.2l-0.2,0l-0.1,0c-0.1,0-0.3,0-0.4-0.1c-1.2-0.3-2.3-0.5-3.5-0.5
			C72.2,22.4,72.1,22.4,72,22.4L72,22.4z"/>
	</g>
	<g>
		<path class="st2" d="M139.4,20.8c-0.2-0.2-0.2-0.4-0.1-0.6l0.4,0c1-0.1,1-0.2,1-1.9V16c0-0.4,0-0.4-0.8-0.4H135
			c-0.8,0-0.8,0-0.8,0.4v2.3c0,1.7,0.1,1.8,1,1.9h0.5c0.1,0.1,0.2,0.1,0.2,0.3c0,0.1,0,0.3-0.1,0.3l-2.2,0h-2
			c-0.2-0.2-0.2-0.4-0.1-0.6l0.4,0c0.9-0.1,0.9-0.2,0.9-1.9v-5.8c0-1.7-0.1-1.9-0.9-1.9h-0.5c-0.1-0.1-0.2-0.1-0.2-0.3
			c0-0.1,0-0.3,0.1-0.3l2.2,0h2c0.1,0,0.2,0.1,0.2,0.2c0,0.1,0,0.3-0.1,0.4l-0.4,0c-0.9,0.1-0.9,0.2-0.9,1.9v1.9
			c0,0.4,0,0.4,0.8,0.4h4.9c0.8,0,0.8,0,0.8-0.4v-1.9c0-1.7,0-1.8-1-1.9h-0.3c-0.1-0.1-0.2-0.1-0.2-0.3c0-0.1,0-0.3,0.1-0.3l2.1,0h2
			c0.1,0,0.2,0.1,0.2,0.2c0,0.2,0,0.3-0.1,0.4l-0.4,0c-0.9,0.1-0.9,0.2-0.9,1.9v5.8c0,1.7,0,1.8,0.9,1.9h0.4
			c0.1,0.1,0.2,0.1,0.2,0.3c0,0.1,0,0.3-0.1,0.3l0,0H139.4z"/>
		<path class="st2" d="M143.5,10.1c0.1,0,0.1,0.3,0,0.4h-0.4c-1,0.1-1,0.3-1,2v5.8c0,1.7,0,1.9,1,2h0.4c0.1,0.1,0.1,0.4,0,0.4
			c-0.8,0-1.4,0-2.1,0s-1.3,0-2.1,0c-0.1-0.1-0.1-0.3,0-0.4h0.3c1.1-0.2,1.1-0.3,1.1-2V16c0-0.5,0-0.5-0.9-0.5H135
			c-0.8,0-0.9,0-0.9,0.5v2.3c0,1.7,0.1,1.9,1.1,2h0.5c0.1,0.1,0.1,0.4,0,0.4c-0.9,0-1.5,0-2.2,0s-1.3,0-2,0c-0.1-0.1-0.1-0.3,0-0.4
			h0.3c1-0.2,1-0.3,1-2v-5.8c0-1.7-0.1-2-1-2h-0.4c-0.1-0.1-0.1-0.4,0-0.4c0.9,0,1.4,0,2.2,0s1.3,0,2,0c0.1,0,0.1,0.3,0,0.4h-0.3
			c-1,0.1-1,0.3-1,2v1.8c0,0.5,0,0.5,0.9,0.5h4.9c0.8,0,0.9,0,0.9-0.5v-1.8c0-1.7,0-1.9-1.1-2h-0.3c-0.1-0.1-0.1-0.4,0-0.4
			c0.8,0,1.4,0,2.1,0S142.8,10.1,143.5,10.1 M143.5,9.9h-2h-2.1h-0.1l-0.1,0c-0.2,0.1-0.1,0.4-0.1,0.4c0,0.2,0.1,0.3,0.2,0.3l0,0
			h0.1h0.3c0.8,0.1,0.9,0.1,0.9,1.8v1.8c0,0.1,0,0.2,0,0.3c0,0-0.3,0-0.6,0H135c-0.3,0-0.6,0-0.6,0c0,0,0-0.2,0-0.3v-1.8
			c0-1.7,0-1.7,0.8-1.8l0.3,0h0l0,0c0.2-0.1,0.2-0.3,0.2-0.5c0-0.2-0.2-0.3-0.3-0.3h-2h-2.2h-0.1l-0.1,0c-0.2,0.1-0.1,0.4-0.1,0.4
			c0,0.2,0.1,0.3,0.2,0.3l0,0h0.1h0.4c0.7,0,0.8,0.1,0.8,1.8v5.8c0,1.7,0,1.7-0.8,1.8l-0.3,0h-0.1l-0.1,0.1c-0.2,0.2-0.2,0.5,0,0.7
			l0.1,0.1h0.1h2h2.2h0.1l0.1,0c0.2-0.1,0.1-0.4,0.1-0.4c0-0.2-0.1-0.3-0.2-0.3l0,0h-0.1h-0.5c-0.8-0.1-0.9-0.1-0.9-1.8V16
			c0-0.1,0-0.2,0-0.3c0,0,0.3,0,0.6,0h4.9c0.2,0,0.6,0,0.6,0c0,0,0,0.2,0,0.3v2.3c0,1.7,0,1.7-0.9,1.8l-0.3,0h-0.1l-0.1,0.1
			c-0.2,0.2-0.2,0.5,0,0.7l0.1,0.1h0.1h2.1h2.1h0.1l0.1,0c0.2-0.1,0.1-0.4,0.1-0.4c0-0.2-0.1-0.3-0.2-0.3l0,0h-0.1h-0.4
			c-0.8-0.1-0.8-0.1-0.8-1.8v-5.8c0-1.7,0-1.7,0.8-1.8l0.3,0h0l0,0c0.2-0.1,0.2-0.3,0.2-0.5C143.8,9.9,143.7,9.9,143.5,9.9
			L143.5,9.9z"/>
	</g>
	<g>
		<path class="st2" d="M125.2,21c-1,0-1.9-0.2-2.8-0.6c-0.4-0.8-0.5-1.5-0.6-2.3c0.1-0.1,0.2-0.2,0.4-0.2c0.1,0,0.2,0.1,0.3,0.1
			c0.4,1.4,1.7,2.3,3.1,2.3l0.1,0c1.6,0,2.3-0.9,2.3-1.8c0-0.6-0.1-1.4-1.5-2.2l-1.8-1c-1.1-0.5-1.9-1.6-2.1-2.8
			c0-1.4,1.2-2.9,4-2.9c0.6,0,1.2,0.1,1.8,0.2c0.2,0.1,0.4,0.1,0.6,0.1l0.1,0l0,0.1c0.2,0.7,0.3,1.3,0.3,2c-0.1,0.1-0.2,0.2-0.3,0.2
			c-0.1,0-0.2,0-0.3-0.1c-0.3-1.1-1.2-1.8-2.3-1.8c-0.1,0-0.2,0-0.3,0c-1.8,0-2.2,0.9-2.2,1.7c0,0.9,0.8,1.5,1.6,1.9l1.5,0.8
			c1.6,0.9,2.4,1.9,2.4,3.2c-0.1,1.8-1.7,3-4.2,3L125.2,21z"/>
		<path class="st2" d="M126.5,9.8c0.6,0,1.2,0.1,1.8,0.2c0.2,0.1,0.4,0.1,0.7,0.1c0.2,0.6,0.3,1.3,0.3,2c-0.1,0-0.2,0.1-0.2,0.1
			s-0.2,0-0.2-0.1c-0.3-1.1-1.2-1.8-2.3-1.8c-0.1,0-0.2,0-0.3,0c-1.9,0-2.2,1-2.2,1.8c0,0.9,0.9,1.6,1.6,2l1.5,0.8
			c1.2,0.6,2.4,1.6,2.4,3.1c0,1.7-1.6,2.9-4.1,2.9c-0.1,0-0.2,0-0.2,0c-1,0-1.9-0.2-2.8-0.6c-0.3-0.7-0.5-1.5-0.5-2.2
			c0.1-0.1,0.2-0.1,0.3-0.1c0.1,0,0.2,0,0.2,0.1c0.4,1.4,1.7,2.4,3.1,2.4c0.1,0,0.1,0,0.2,0c1.6,0,2.4-0.9,2.4-1.9
			c0-0.7-0.2-1.5-1.6-2.2l-1.8-1c-1.1-0.5-1.9-1.6-2-2.8C122.7,11,124.1,9.8,126.5,9.8 M126.5,9.6L126.5,9.6c-2.8,0-4.1,1.5-4.1,3
			c0.1,1.3,0.9,2.4,2.1,2.9l1.8,1c1.3,0.7,1.4,1.5,1.4,2.1c0,0.8-0.6,1.6-2.2,1.6c-0.1,0-0.1,0-0.2,0c-1.4,0-2.6-0.9-3-2.2
			c-0.1-0.2-0.2-0.2-0.4-0.2c-0.2,0-0.3,0.1-0.4,0.2l-0.1,0.1l0,0.1c0,0.8,0.2,1.6,0.5,2.3l0,0.1l0.1,0c0.9,0.4,1.9,0.6,2.9,0.6
			c0.1,0,0.2,0,0.2,0c2.5,0,4.2-1.2,4.3-3.1c0-1.3-0.8-2.4-2.5-3.3l-1.5-0.8c-0.7-0.4-1.5-1-1.5-1.8c0-0.7,0.4-1.6,2-1.6
			c0.1,0,0.2,0,0.3,0c1,0,1.9,0.7,2.1,1.7l0,0.1l0.1,0c0.1,0.1,0.2,0.1,0.3,0.1c0.1,0,0.2,0,0.3-0.1l0.1-0.1l0-0.1
			c0-0.7-0.1-1.4-0.4-2.1l0-0.1l-0.1,0c-0.2,0-0.4,0-0.6-0.1C127.7,9.7,127.1,9.6,126.5,9.6L126.5,9.6L126.5,9.6z"/>
	</g>
	<g>
		<path class="st2" d="M115.9,20.7c-0.2-0.2-0.2-0.4-0.1-0.6l0.5,0c0.9-0.1,1-0.2,1-1.9v-5.7c0-1.7,0-1.9-1-2h-0.4
			c-0.1,0-0.2-0.1-0.2-0.2c0-0.1,0-0.3,0.1-0.3l2.3,0h2.2c0.1,0,0.2,0.1,0.2,0.2c0,0.2,0,0.3-0.1,0.4l-0.5,0c-1,0.1-1,0.3-1,2v5.7
			c0,1.7,0,1.8,1,1.9h0.4c0.1,0.1,0.2,0.1,0.2,0.2c0,0.1,0,0.3-0.1,0.3l0,0H115.9z"/>
		<path class="st2" d="M120.3,10.1c0.1,0,0.1,0.3,0,0.4h-0.4c-1.1,0.1-1.1,0.4-1.1,2.1v5.7c0,1.7,0,1.9,1.1,2h0.4
			c0.1,0.1,0.1,0.4,0,0.4c-0.9,0-1.5,0-2.2,0s-1.3,0-2.2,0c-0.1-0.1-0.1-0.3,0-0.4h0.4c1.1-0.1,1.1-0.3,1.1-2v-5.7
			c0-1.7,0-2-1.1-2.1h-0.4c-0.1-0.1-0.1-0.4,0-0.4c0.9,0,1.5,0,2.2,0S119.5,10.1,120.3,10.1 M120.3,9.9h-2.2h-2.2h-0.1l-0.1,0
			c-0.1,0.1-0.2,0.3-0.2,0.4c0,0.2,0.1,0.3,0.2,0.3l0,0h0.1h0.4c0.9,0,0.9,0.1,0.9,1.9v5.7c0,1.6,0,1.7-0.9,1.8l-0.4,0h-0.1
			l-0.1,0.1c-0.2,0.2-0.2,0.5,0,0.7l0.1,0.1h0.1h2.2h2.2h0.1l0.1,0c0.1-0.1,0.2-0.3,0.2-0.4c0-0.2-0.1-0.3-0.2-0.3l0,0h-0.1h-0.4
			C119,20,119,20,119,18.2v-5.7c0-1.7,0.1-1.8,0.9-1.9l0.4,0h0l0,0c0.2-0.1,0.2-0.3,0.2-0.5C120.6,9.9,120.5,9.9,120.3,9.9
			L120.3,9.9z"/>
	</g>
	<g>
		<path class="st2" d="M107.3,20.8c-0.1-0.1-0.2-0.2-0.2-0.3s0-0.2,0.1-0.3l0,0l0.1,0h0.6c0.9-0.1,0.9-0.2,0.9-1.9v-7.2
			c0-0.4,0-0.4-0.4-0.4h-0.9c-0.1,0-0.3,0-0.4,0c-0.6,0-1.1,0.1-1.6,0.4c-0.3,0.3-0.5,0.7-0.7,1.1c-0.1,0.1-0.2,0.1-0.2,0.1
			c-0.1,0-0.3-0.1-0.4-0.2c0.3-0.9,0.5-1.7,0.6-2.5c0.1-0.1,0.2-0.1,0.3-0.1c0.1,0,0.1,0,0.2,0c0.1,0.5,0.6,0.5,1.3,0.5h6.8
			c0.9,0,1,0,1.2-0.4l0-0.1h0.5l0,0.1c-0.2,0.8-0.3,1.6-0.2,2.4c-0.1,0.1-0.2,0.2-0.3,0.2s-0.2,0-0.3-0.1c-0.1-0.6-0.2-1-0.4-1.2
			c-0.5-0.3-1-0.4-1.6-0.4c-0.1,0-0.2,0-0.3,0h-1.2c-0.2,0-0.3,0-0.4,0c0,0,0,0.2,0,0.4l0,7.2c0,1.7,0,1.8,0.9,1.9h0.5
			c0.1,0.1,0.2,0.1,0.2,0.3c0,0.1,0,0.3-0.1,0.3l0,0H107.3z"/>
		<path class="st2" d="M105,9.5c0.1,0,0.1,0,0.2,0c0.1,0.5,0.6,0.5,1.3,0.5c0,0,0.1,0,0.1,0h6.8c0.9,0,1,0,1.3-0.5
			c0.1,0,0.3,0,0.3,0c-0.2,0.8-0.3,1.6-0.2,2.4c-0.1,0.1-0.1,0.1-0.2,0.1s-0.2,0-0.2-0.1c-0.1-0.4-0.2-1-0.4-1.2
			c-0.5-0.3-1.1-0.4-1.6-0.4c-0.1,0-0.2,0-0.3,0h-1.2c-0.5,0-0.5,0-0.5,0.5l0,7.2c0,1.7,0,1.9,1,2h0.5c0.1,0.1,0.1,0.4,0,0.4
			c-1,0-1.5,0-2.2,0s-1.2,0-2.3,0c-0.1-0.1-0.1-0.3,0-0.4c0,0,0,0,0,0h0.6c1-0.1,1-0.3,1-2v-7.2c0-0.5,0-0.5-0.5-0.5h-0.9
			c-0.1,0-0.3,0-0.4,0c-0.6,0-1.2,0.1-1.7,0.4c-0.3,0.3-0.6,0.7-0.8,1.1c0,0-0.1,0-0.2,0c-0.1,0-0.2-0.1-0.3-0.1
			c0.3-0.8,0.5-1.6,0.6-2.4C104.9,9.6,105,9.5,105,9.5 M105,9.3c-0.1,0-0.2,0-0.2,0l-0.1,0l0,0.1c-0.1,0.8-0.4,1.6-0.6,2.4l0,0.1
			l0.1,0.1c0.1,0.1,0.3,0.2,0.4,0.2c0.1,0,0.2,0,0.2-0.1l0.1,0l0-0.1c0.1-0.4,0.4-0.7,0.7-1c0.5-0.3,1-0.4,1.6-0.4
			c0.1,0,0.2,0,0.4,0l0.9,0c0.1,0,0.3,0,0.3,0c0,0,0,0.2,0,0.3v7.2c0,1.7,0,1.7-0.8,1.8l-0.6,0h-0.1l-0.1,0.1
			c-0.2,0.2-0.2,0.5,0,0.7l0.1,0.1h0.1h2.3h2.2h0.1l0.1,0c0.2-0.1,0.1-0.4,0.1-0.4c0-0.2-0.1-0.3-0.2-0.3l0,0h-0.1h-0.5
			c-0.8-0.1-0.8-0.1-0.8-1.8l0-7.2c0-0.2,0-0.3,0-0.4c0,0,0.1,0,0.3,0h1.2c0.1,0,0.2,0,0.3,0c0.5,0,1.1,0.1,1.5,0.4
			c0.1,0.1,0.2,0.4,0.3,1l0,0.1l0.1,0c0.1,0.1,0.2,0.1,0.3,0.1c0.1,0,0.3,0,0.3-0.1l0.1-0.1l0-0.1c0-0.8,0.1-1.6,0.2-2.4l0.1-0.2
			H115h-0.3h-0.1l-0.1,0.1c-0.2,0.3-0.2,0.3-1.1,0.3h-6.8l-0.1,0c-0.8,0-1.1,0-1.1-0.3l0-0.1l-0.1,0C105.2,9.4,105.1,9.3,105,9.3
			L105,9.3z"/>
	</g>
	<g>
		<path class="st2" d="M98.8,20.7c-0.2-0.2-0.2-0.4-0.1-0.6l0.5,0c0.9-0.1,1-0.2,1-1.9v-5.7c0-1.7,0-1.9-1-2h-0.4
			c-0.1,0-0.2-0.1-0.2-0.2c0-0.1,0-0.3,0.1-0.3l2.3,0h2.2c0.1,0,0.2,0.1,0.2,0.2c0,0.2,0,0.3-0.1,0.4l-0.5,0c-1,0.1-1,0.3-1,2v5.7
			c0,1.7,0,1.8,1,1.9h0.4c0.1,0.1,0.2,0.1,0.2,0.3c0,0.1,0,0.3-0.1,0.3l0,0H98.8z"/>
		<path class="st2" d="M103.3,10.1c0.1,0,0.1,0.3,0,0.4h-0.4c-1.1,0.1-1.1,0.4-1.1,2.1v5.7c0,1.7,0,1.9,1.1,2h0.4
			c0.1,0.1,0.1,0.4,0,0.4c-0.9,0-1.5,0-2.2,0s-1.3,0-2.2,0c-0.1-0.1-0.1-0.3,0-0.4h0.4c1.1-0.1,1.1-0.3,1.1-2v-5.7
			c0-1.7,0-2-1.1-2.1h-0.4c-0.1-0.1-0.1-0.4,0-0.4c0.9,0,1.5,0,2.2,0S102.4,10.1,103.3,10.1 M103.3,9.9h-2.2h-2.2h-0.1l-0.1,0
			c-0.1,0.1-0.2,0.3-0.2,0.4c0,0.2,0.1,0.3,0.2,0.3l0,0h0.1h0.4c0.9,0,0.9,0.1,0.9,1.9v5.7c0,1.6,0,1.7-0.9,1.8l-0.4,0h-0.1
			l-0.1,0.1c-0.2,0.2-0.2,0.5,0,0.7l0.1,0.1h0.1h2.2h2.2h0.1l0.1,0c0.2-0.1,0.1-0.4,0.1-0.4c0-0.2-0.1-0.3-0.2-0.3l0,0h-0.1h-0.4
			C102,20,102,20,102,18.2v-5.7c0-1.7,0.1-1.8,0.9-1.9l0.4,0h0l0,0c0.2-0.1,0.2-0.3,0.2-0.5C103.5,9.9,103.4,9.9,103.3,9.9
			L103.3,9.9z"/>
	</g>
	<g>
		<path class="st2" d="M95.3,20.8c-0.4,0-0.5-0.3-0.7-0.5l-1.9-3.5l-0.1-0.2c-0.6-1-0.6-1.1-1.9-1.1c-0.1,0-0.3,0-0.4,0.1
			c0,0-0.1,0.1-0.1,0.6V19c0,0.9,0,1.1,0.9,1.1h0.7c0.2,0.2,0.2,0.4,0.1,0.6l-0.7,0c-0.3,0-0.6,0-0.9,0c-0.3,0-0.6,0-0.9,0
			c-0.6,0-1.2,0-1.8,0.1h-0.7c-0.2-0.2-0.2-0.4-0.1-0.6l0.5,0h0.2c0.9-0.1,0.9-0.3,0.9-1.1v-7.3c0-1,0-1.1-1.1-1.2l-0.3,0
			c-0.2,0-0.3-0.1-0.3-0.3c0-0.1,0-0.2,0.1-0.3c0.1-0.1,0.2-0.1,0.3-0.1l5.2,0c1.8,0,3.7,0.8,3.7,2.7c0,1.6-1.4,2.4-2.7,2.7
			c0.3,0.2,0.6,0.6,0.7,0.9l1.7,3c0.3,0.5,0.5,0.9,1.1,1l0.2,0l0.3,0c0.2,0.2,0.2,0.4,0.1,0.6l0,0H95.3z M91.7,10.4
			c-1.4,0-1.4,0.1-1.4,1.3l0,3.1c0,0.1,0,0.1,0.1,0.2c0.1,0,0.2,0,0.3,0c0.1,0,0.4,0,0.4,0c0.1,0,0.2,0,0.3,0c0.7,0,1.4-0.2,2-0.6
			c0.5-0.4,0.9-1,0.8-1.7C94.3,11.2,93.4,10.4,91.7,10.4z"/>
		<path class="st2" d="M87.3,10c0,0,0.1,0,0.1,0h1.9h3.2c1.8,0,3.6,0.8,3.6,2.6c0,1.6-1.4,2.5-3,2.7c0.6,0.1,0.9,0.7,1.2,1.1
			l1.5,2.7c0.3,0.5,0.6,1.1,1.2,1.2h0.2l0.3,0c0.1,0.1,0.1,0.3,0,0.4H97h-1.7c-0.4,0-0.5-0.3-0.6-0.6l-1.9-3.4
			c-0.7-1.2-0.7-1.3-2.1-1.3c-0.1,0-0.3,0-0.4,0.1c-0.1,0.1-0.1,0.5-0.1,0.7v2.7c0,1-0.1,1.3,1,1.4h0.2h0.4c0.1,0.1,0.1,0.3,0,0.4
			h-0.7c-0.6,0-1.1-0.1-1.7-0.1c-0.6,0-1.2,0-1.8,0.1h-0.7c-0.1-0.1-0.1-0.3,0-0.4h0.5h0.2c1.1-0.1,1-0.4,1-1.4v-7
			c0-1.1,0-1.3-1.2-1.4c-0.1,0-0.2,0-0.3,0c-0.2,0-0.2,0-0.2-0.2C87.1,10,87.1,10,87.3,10 M90.7,15c0.2,0,0.3,0,0.4,0
			c0.1,0,0.2,0,0.3,0c0.7,0,1.4-0.2,2.1-0.6c0.6-0.4,0.9-1.1,0.9-1.8c0-1.6-1-2.4-2.7-2.4c-1.5,0-1.5,0.2-1.5,1.4l0,3.1
			C90.2,15,90.4,15,90.7,15 M87.3,9.8c-0.1,0-0.3,0-0.4,0.1c-0.1,0.1-0.1,0.2-0.1,0.3c0,0.4,0.2,0.4,0.4,0.4l0.1,0l0.2,0
			c1,0.1,1,0.1,1,1.1l0,0.1v7l0,0.2c0,0.9,0,1-0.8,1l-0.2,0h-0.5H87l-0.1,0.1c-0.2,0.2-0.2,0.5,0,0.7l0.1,0.1h0.1h0.7
			c0.6-0.1,1.2-0.1,1.8-0.1c0.3,0,0.6,0,0.9,0c0.3,0,0.6,0,0.9,0h0.7H92l0.1-0.1c0.2-0.2,0.2-0.5,0-0.7L92,20h-0.1h-0.4h-0.2
			c-0.8-0.1-0.8-0.2-0.8-1l0-0.2v-2.7c0-0.4,0-0.5,0-0.6c0,0,0.2,0,0.3,0c1.2,0,1.3,0,1.8,1l0.1,0.2l1.9,3.4l0.1,0.1
			c0.1,0.2,0.3,0.6,0.8,0.6H97h0.7h0.1l0.1-0.1c0.2-0.2,0.2-0.5,0-0.7l-0.1-0.1l-0.1,0l-0.3,0l-0.3,0c-0.5-0.1-0.7-0.5-1-1L96,18.9
			l-1.5-2.7l-0.1-0.2c-0.2-0.3-0.3-0.6-0.6-0.8c1.3-0.3,2.6-1.2,2.6-2.8c0-1.9-1.9-2.8-3.8-2.8h-3.2h-1.9L87.3,9.8L87.3,9.8
			L87.3,9.8z M90.7,14.8c-0.4,0-0.4-0.1-0.4-0.1l0-3.1c0-1.2,0-1.2,1.3-1.2c1.6,0,2.5,0.8,2.5,2.2c0,0.6-0.3,1.2-0.8,1.6
			c-0.6,0.4-1.3,0.5-1.9,0.5c-0.1,0-0.2,0-0.3,0c0,0,0,0,0,0c-0.1,0-0.1,0-0.2,0C90.9,14.8,90.8,14.8,90.7,14.8L90.7,14.8z"/>
	</g>
	<g>
		<path class="st2" d="M80.4,20.8c-0.3,0-0.6,0-1,0c-0.5,0-1,0-1.5,0c-0.9,0-1.6,0-2.4,0.1c-0.2-0.2-0.2-0.5-0.1-0.6l0.4-0.1
			c1-0.2,1.1-0.3,1.1-2.3l-0.1-7.2c0-1.4-0.1-1.7-0.9-1.7h-0.6c-0.2-0.1-0.2-0.4-0.2-0.5c0-0.1,0.1-0.2,0.1-0.2
			c1.2-0.1,2.6-0.2,4.5-0.2c0.2,0,0.3,0,0.5,0c1.1,0,2.1,0.2,3.1,0.5c1,0.4,1.7,1.4,1.7,2.4c0,1.3-0.8,2-2.1,2.6
			c0,0.1,0.1,0.1,0.3,0.1c1.6,0.2,2.9,1.6,2.9,3.2C86,19.5,84,20.8,80.4,20.8z M79.8,14.3c-1.1,0-1.1,0.1-1.1,0.4l0,2.8
			c-0.1,0.7,0.1,1.4,0.4,2c0.4,0.3,0.8,0.5,1.3,0.5c0.1,0,0.1,0,0.2,0c1.2,0,3.2-0.3,3.2-2.5C83.9,16.3,83.4,14.3,79.8,14.3z
			 M79.7,8.8c-0.3,0-0.5,0-0.8,0.1c-0.1,0-0.2,0.1-0.2,0.4l0,3.8c0,0.4,0,0.4,0.6,0.4c0.1,0,0.3,0,0.4,0c2.3-0.1,3.2-0.7,3.2-2.3
			c0-1.8-1.6-2.4-3-2.4C79.8,8.8,79.7,8.8,79.7,8.8z"/>
		<path class="st2" d="M80.2,8.2c1,0,2.1,0.2,3,0.5c1,0.4,1.6,1.3,1.6,2.4c0,1.4-0.9,2-2.1,2.6c0,0.2,0.2,0.2,0.4,0.3
			c1.6,0.2,2.8,1.5,2.8,3.1c0,2.2-1.8,3.6-5.6,3.6c-0.6,0-1.6-0.1-2.5-0.1s-1.6,0-2.4,0.1c-0.1-0.1-0.1-0.3,0-0.5l0.4-0.1
			C77,20,77,19.8,77,17.9l-0.1-7.2c0-1.4-0.1-1.8-1-1.8h-0.7c-0.1-0.1-0.1-0.5,0-0.5c1.1-0.1,2.6-0.1,4.5-0.1
			C79.9,8.2,80.1,8.2,80.2,8.2 M79.3,13.7c0.1,0,0.3,0,0.4,0c2.1-0.1,3.3-0.6,3.3-2.4c0-1.8-1.5-2.5-3.1-2.5c-0.1,0-0.1,0-0.2,0
			c-0.3,0-0.5,0-0.8,0.1c-0.2,0.1-0.3,0.1-0.3,0.5l0,3.8C78.6,13.6,78.6,13.7,79.3,13.7 M80.5,20.1c0.1,0,0.1,0,0.2,0
			c1.9,0,3.3-0.8,3.3-2.6c0-1.5-0.8-3.2-4.2-3.2c-1.1,0-1.2,0.1-1.2,0.5l0,2.8c-0.1,0.7,0.1,1.4,0.4,2C79.4,19.9,80,20.1,80.5,20.1
			 M80.2,8c-0.2,0-0.3,0-0.5,0c0,0,0,0,0,0c-1.9,0-3.3,0-4.5,0.2c-0.1,0-0.2,0-0.2,0.2c0,0.1-0.1,0.5,0.1,0.6l0.1,0h0.1h0.7
			c0.7,0.1,0.8,0.2,0.8,1.6l0.1,7.2c0,2-0.1,2-1,2.1l-0.4,0.1l-0.1,0l0,0c-0.2,0.2-0.2,0.5,0,0.7l0.1,0.1l0.1,0
			c0.8-0.1,1.5-0.1,2.4-0.1c0.5,0,1,0,1.5,0c0.4,0,0.8,0,1,0c3.7,0,5.8-1.4,5.8-3.9c0-1.7-1.3-3.1-3-3.3c0,0-0.1,0-0.1,0
			c1.2-0.6,2-1.3,2-2.6c0-1.1-0.7-2.1-1.7-2.5C82.3,8.2,81.3,8,80.2,8L80.2,8z M79.3,13.5c-0.3,0-0.4,0-0.4,0c0,0,0-0.2,0-0.3l0-3.8
			c0-0.3,0-0.3,0.1-0.3c0.2-0.1,0.5-0.1,0.7-0.1c0.1,0,0.1,0,0.2,0c1.4,0,2.9,0.6,2.9,2.3c0,1.5-0.9,2.1-3.1,2.2
			C79.5,13.5,79.4,13.5,79.3,13.5L79.3,13.5z M79.2,19.4c-0.3-0.6-0.5-1.2-0.4-1.9l0-2.8c0-0.2,0-0.3,1-0.3c3.4,0,3.9,1.9,3.9,3
			c0,2.1-1.9,2.4-3.1,2.4c-0.1,0-0.2,0-0.2,0C80,19.9,79.6,19.7,79.2,19.4L79.2,19.4z"/>
	</g>
</g>
<path class="st2" d="M8.6,34.5c9.7,0,23.2,5.5,33,5.5c7,0,13.8-1.9,17.7-4.6c2.6-16.2-8.4-31.3-24.6-33.9S3.3,9.9,0.7,26.1
	c-0.2,1.4-0.4,2.9-0.4,4.4c0,1.7,0.1,3.3,0.4,4.9C3.3,34.9,6,34.6,8.6,34.5z"/>
<polygon class="st1" points="49.1,23.6 50.3,24.1 52.9,22.3 "/>
<path class="st1" d="M5.5,21.6l-3.1-1.1l0.2-0.4L6,21.3l0,0L6.4,21l0.2-0.1l-3.7-1.6l0.2-0.4l8.4,3.4l0.3-0.1l-8.4-4.1l0.2-0.4
	l8.9,4.1l0.1-0.1L4,16.9l0.2-0.4l12.4,6.8c0.1-0.2,0.3-0.5,0.4-0.7c-2.9-2.8-6-5.4-9.3-7.8c3.4,2.2,6.9,4.2,10.5,6
	c0.2-0.2,0.4-0.4,0.5-0.7L8.2,10.9l0.3-0.3l8.6,7.3L9.1,10l0.3-0.3l8.9,8.6L10,9.1l0.3-0.3L18,17l-7-8.8l0.3-0.3l9,10.9
	c0.2-0.2,0.4-0.4,0.7-0.5c-1.7-3.6-3.6-7.2-5.7-10.6c2.3,3.3,4.8,6.5,7.4,9.5c0.3-0.1,0.5-0.3,0.8-0.4l0,0L17.1,4.2L17.5,4l5.2,10
	L18.3,3.6l0.4-0.2l5,11.3L19.5,3.1L19.9,3l4,10.5L20.7,2.7l0.4-0.1l4.2,13.4l0,0l0,0c0.3-0.1,0.6-0.2,0.9-0.2c-0.2-4-0.6-8-1.3-11.9
	c0.9,3.9,2,7.7,3.3,11.5l0.9-0.1l0,0l0,0l-1.1-14h0.4l1.1,11.2L29.2,1.2h0.4l0.4,12.4l0.4-12.4h0.4l-0.2,11.2l1.1-11.2h0.4l-1.1,14
	l0,0l0,0l0.9,0.1c1.3-3.8,2.4-7.6,3.3-11.5c-0.6,3.9-1.1,7.9-1.3,11.9l0.8,0.2L39,2.6l0.4,0.1l-3.2,10.8l4-10.5l0.4,0.1l-4.2,11.6
	l5-11.3l0.4,0.2L37.4,14l5.2-10L43,4.2l-6.2,12.5l0,0c0.3,0.1,0.5,0.3,0.8,0.4c2.6-3,5.1-6.2,7.4-9.4c-2.1,3.4-3.9,6.9-5.6,10.6
	c0.2,0.2,0.5,0.4,0.7,0.6L48.8,8l0.3,0.3l-7,8.8l7.7-8.2l0.3,0.3l-8.3,9.2l8.9-8.6l0.3,0.3L43.1,18l8.5-7.3l0.3,0.3l-10.5,9.2l0,0
	c0.2,0.2,0.4,0.4,0.5,0.6c3.6-1.8,7-3.8,10.4-6c-3.2,2.4-6.3,5-9.2,7.7c0.1,0.2,0.3,0.6,0.5,0.8l12.2-6.7l0.2,0.4l-9.8,5.5l10.2-4.7
	l0.2,0.4l-9.5,4.6l0.2,0.1L57,19l0.2,0.4l-9,3.8l0.2,0.1l6-2l0.9-0.6l0.3,0.2l2-0.6l0.2,0.4L56,21.2l2.4,1.9l0.8,0.4
	C55.3,7.4,39.1-2.5,23,1.3C11.8,4,3.1,12.9,0.7,24.2l0.1,0L1.1,24l0.2-0.1L5.5,21.6z"/>
<path class="st3" d="M0.5,36c2.7-0.5,5.4-0.8,8.1-0.9c9.7,0,23.2,5.5,33,5.5c7.2,0,14.2-2,18-4.8c0.7-4.1,0.6-8.2-0.4-12.2l-4.1-2.3
	l-4.8,3.3l-3.3-1.2c-1.1,0.5-7.8,5-7.8,5l-2.6-1.9L34,26l-3.7-2.7l-4.2,2.9c0,0-4.7,2.7-4.9,2.7s-5.7-4.4-5.7-4.4l-2.6-2.7
	c-0.4,0.3-2.2,1.1-2.2,1.1h-0.1L9,22.5l-2-1.1l-6.2,2.8l-0.1,0C-0.2,28.1-0.2,32.1,0.5,36z"/>
</svg>
