<svg id="Layer_1" data-name="Layer 1" xmlns="http://www.w3.org/2000/svg" width="155" height="41.7" viewBox="0 0 155 41.7">
  <defs>
    <style>
      .cls-1 {
        fill: #036;
      }

      .cls-2 {
        fill: #fdb913;
      }

      .cls-3 {
        fill: #fff;
      }

      .cls-4 {
        fill: #4c81af;
      }
    </style>
  </defs>
  <title>Artboard 1</title>
  <rect class="cls-1" x="-1.1" y="-0.9" width="157.1" height="43.58"/>
  <rect class="cls-2" x="75.2" y="40.4" width="68.5" height="0.83"/>
  <path class="cls-3" d="M8.6,34.8c9.7,0,23.2,5.5,33,5.5,7,0,13.8-1.9,17.7-4.6a29.6,29.6,0,1,0-58.5,0A48.4,48.4,0,0,1,8.6,34.8Z"/>
  <polygon class="cls-2" points="49.1 23.9 50.3 24.4 52.9 22.6 49.1 23.9"/>
  <path class="cls-2" d="M5.5,21.9,2.4,20.8l.2-.4L6,21.6H6l.5-.3h.2L2.9,19.6l.2-.4,8.4,3.4h.3L3.4,18.4l.2-.4,8.9,4.1h.1L4,17.2l.2-.4,12.4,6.8.4-.7a110.7,110.7,0,0,0-9.3-7.8,110.3,110.3,0,0,0,10.5,6l.5-.7L8.2,11.2l.3-.3L17,18.2,9.1,10.2l.3-.3,8.9,8.6L10,9.3l.3-.3L18,17.2,11,8.4l.3-.3,9,10.9.7-.5A110.1,110.1,0,0,0,15.3,7.9a110.3,110.3,0,0,0,7.4,9.5l.8-.4h0L17.1,4.4l.4-.2,5.2,10L18.3,3.9l.4-.2,5,11.3L19.5,3.4h.4l4,10.5L20.7,2.9h.4l4.2,13.4h0l.9-.2A110.2,110.2,0,0,0,24.9,4a110.4,110.4,0,0,0,3.3,11.5H29l-1.1-14h.4l1.1,11.2L29.2,1.5h.4l.4,12.4.4-12.4H31l-.2,11.2L31.8,1.5h.4l-1.1,14H32A110.5,110.5,0,0,0,35.3,4.1,111.1,111.1,0,0,0,34,15.9l.8.3L39,2.8h.4L36.2,13.8l4-10.5h.4L36.4,15.1l5-11.3.4.2L37.5,14.3l5.2-10,.4.2L36.8,16.9h0l.8.4a110.6,110.6,0,0,0,7.4-9.4,111.1,111.1,0,0,0-5.6,10.6l.7.6L48.8,8.3l.3.3-7,8.8,7.7-8.2.3.3-8.3,9.2L50.7,10l.3.3-7.9,7.9L51.6,11l.3.3L41.5,20.5h0l.5.6a110.5,110.5,0,0,0,10.4-6,110.6,110.6,0,0,0-9.2,7.7l.5.8L55.9,17l.2.4-9.8,5.5,10.2-4.7.2.4-9.5,4.6h.2L57,19.3l.2.4-9,3.8h.2l6-2,.9-.6.3.2,2-.6.2.4-1.7.6,2.4,1.9.8.4a30,30,0,0,0-58.5.7H.8l.4-.2h.2Z"/>
  <path class="cls-4" d="M.5,36.3a49.3,49.3,0,0,1,8.1-.9c9.7,0,23.2,5.5,33,5.5,7.2,0,14.2-2,18-4.8a30.2,30.2,0,0,0-.4-12.2l-4.1-2.3-4.8,3.3-3.3-1.2c-1.1.5-7.8,5-7.8,5l-2.6-1.9L34,26.3l-3.7-2.7-4.2,2.9-4.9,2.7c-.2,0-5.7-4.4-5.7-4.4L13,22.1l-2.2,1.1h-.1L9,22.7,7,21.7.8,24.5H.7A30.2,30.2,0,0,0,.5,36.3Z"/>
  <g>
    <path class="cls-3" d="M154.2,35.4h-.4c-.4-.1-.7-.7-.9-1.2v-.2l-3.5-8.3h-.1a.5.5,0,0,0-.5-.4c-.4,0-.5.4-.6.5L144.7,34a5.4,5.4,0,0,1-.6,1.2h-1.3a.6.6,0,0,0,0,.8h4.3a.6.6,0,0,0,0-.8h-.9c-.5-.1-.6-.1-.6-.3a2.5,2.5,0,0,1,.2-.8l.5-1.3v-.3c.1-.2.1-.2.5-.2h2.4c.5,0,.5,0,.7.4v.3l.6,1.3a2.5,2.5,0,0,1,.2.7s0,.2-.6.2h-.9a.6.6,0,0,0,0,.8h4.7A.6.6,0,0,0,154.2,35.4Zm-6-7.1,1.3,2.9h-2.5Z"/>
    <path class="cls-3" d="M141.3,26.1h.5a.5.5,0,0,0,.3-.6.4.4,0,0,0-.4-.4h-4.5a.6.6,0,0,0-.2.5.5.5,0,0,0,.2.4h.6c.8,0,.8,0,.8,1.8v5.7c0,1.6,0,1.6-.8,1.7h-.6a.6.6,0,0,0,0,.8h4.7a.6.6,0,0,0,.2-.5.5.5,0,0,0-.2-.4h-.6c-.8-.1-.8-.1-.8-1.7V27.9C140.5,26.2,140.5,26.2,141.3,26.1Z"/>
    <path class="cls-3" d="M134.2,29.9a2.4,2.4,0,0,0-.1-4.5,8.8,8.8,0,0,0-3-.4h-4.3a.4.4,0,0,0-.3.2.7.7,0,0,0,.1.7h.8c.6,0,.6.1.6,1.3v6.1c0,1.6,0,1.6-.7,1.7h-.5a.6.6,0,0,0-.2.4.6.6,0,0,0,.2.4h4.6c3.4,0,5.3-1.3,5.3-3.5A3.1,3.1,0,0,0,134.2,29.9Zm-2.5,5.3h-.2a1.7,1.7,0,0,1-1-.4,2.5,2.5,0,0,1-.3-1.5V30.9h.8c2.8,0,3.4,1.3,3.4,2.5S133,35.3,131.7,35.3Zm-.7-9.2c1.2,0,2.5.5,2.5,1.9s-.5,1.7-2.7,1.8h-.7s0-.1,0-.2V26.3a.3.3,0,0,1,0-.1h.9Z"/>
    <path class="cls-3" d="M110.9,25.2h-4.2a.6.6,0,0,0,0,.9h1.2a40.4,40.4,0,0,1,.2,5.1c0,2.9-1.6,4-3.1,4s-3.2-1.2-3.2-4V27.5c0-1.3,0-1.3.7-1.4h.6a.5.5,0,0,0,.2-.6.4.4,0,0,0-.4-.3H98.7a.6.6,0,0,0-.2.5.5.5,0,0,0,.2.4h.6c.7,0,.7,0,.7,1.6v3.8c0,2,.5,3.2,1.4,4a5.3,5.3,0,0,0,3,1h.5a4.9,4.9,0,0,0,3.3-1.3,5.2,5.2,0,0,0,1.3-4.1s0-3.8.2-5l.5-.2h.7a.7.7,0,0,0,.2-.4A.5.5,0,0,0,110.9,25.2Z"/>
    <path class="cls-3" d="M99.1,33.4h-.8a3.2,3.2,0,0,1-1.1,1.5,5,5,0,0,1-1.7.2H95a2.5,2.5,0,0,1-1.6-.3c-.2-.2-.3-.5-.3-1.5V27.8c0-1.6.1-1.6.8-1.7h.5a.5.5,0,0,0,.3-.6.4.4,0,0,0-.4-.4H89.8a.6.6,0,0,0-.2.5.5.5,0,0,0,.2.4h.6c.9,0,.9,0,.9,1.7v5.8c0,1.6,0,1.6-.8,1.7h-.7a.6.6,0,0,0,0,.8h8.8a12.3,12.3,0,0,0,.8-2.3A.4.4,0,0,0,99.1,33.4Z"/>
    <path class="cls-3" d="M88.3,26.6a6.2,6.2,0,0,0-4.6-1.8h-.3a6,6,0,0,0-6,6c0,2.9,2.2,5.7,6.3,5.7h.2a5.9,5.9,0,0,0,6-5.9A5.8,5.8,0,0,0,88.3,26.6Zm-4.4,8.8c-1.6,0-4.2-1.1-4.2-5.2s2-4.4,3.7-4.4,4.2,2.8,4.2,5.2h0C87.5,33.2,86.5,35.4,83.9,35.4Z"/>
    <path class="cls-3" d="M76.6,32.5h-.5a3.8,3.8,0,0,1-3.6,2.6h-.2c-3.3,0-5.5-2.5-5.5-6.1s2.7-5.6,5.2-5.6,3.3.9,3.7,2.6h.1l.5.2.5-.2h.1c-.2-1.2-.3-2.4-.3-2.8h0v-.2h-.7a15.3,15.3,0,0,0-3.5-.5H72a8.8,8.8,0,0,0-5.2,1.7,6.8,6.8,0,0,0-2.5,5.4,6.5,6.5,0,0,0,2.9,5.6,8.8,8.8,0,0,0,4.7,1.4h.3a11.7,11.7,0,0,0,3.2-.5L76,36h.2a7.5,7.5,0,0,0,1-2.8h0A.7.7,0,0,0,76.6,32.5Z"/>
    <path class="cls-3" d="M131.2,11h.6c.6,0,.7,0,.7,1.7v6.1c0,1.4,0,1.4-.6,1.4h-.5a.6.6,0,0,0,0,.8h4.6a.6.6,0,0,0,.2-.5.5.5,0,0,0-.2-.4h-.7c-.7,0-.7,0-.7-1.7V16.3a1.1,1.1,0,0,1,0-.2h6.1a.7.7,0,0,0,0,.2v2.5c0,1.4,0,1.4-.7,1.4h-.5a.6.6,0,0,0,0,.8h4.5a.6.6,0,0,0,.2-.5.5.5,0,0,0-.2-.4h-.6c-.7-.1-.7-.1-.7-1.6h0V12.7c0-1.6,0-1.6.7-1.7h.4a.5.5,0,0,0,.3-.6.4.4,0,0,0-.4-.4h-4.2a.6.6,0,0,0-.2.5.5.5,0,0,0,.2.4h.5c.8.1.8.1.8,1.7v1.9a1.1,1.1,0,0,1,0,.2h-6.1a.7.7,0,0,0,0-.2V12.7c0-1.6,0-1.6.7-1.7h.4a.5.5,0,0,0,.3-.6.4.4,0,0,0-.4-.4h-4.3a.6.6,0,0,0-.2.5A.5.5,0,0,0,131.2,11Z"/>
    <path class="cls-3" d="M122.2,20.7h.1a7.1,7.1,0,0,0,2.9.6h.2c2.6,0,4.3-1.3,4.4-3.2s-.8-2.5-2.5-3.4l-1.5-.8c-.7-.4-1.5-1-1.5-1.7s.7-1.5,2-1.5h.3a2.1,2.1,0,0,1,2,1.6h1.1a6.3,6.3,0,0,0-.4-2.1h-.9l-1.8-.2h0c-2.9,0-4.2,1.5-4.2,3.1a3.7,3.7,0,0,0,2.2,3l1.8,1c1.3.7,1.4,1.4,1.4,2s-.6,1.6-2.1,1.6h-.1a3,3,0,0,1-2.9-2.2.5.5,0,0,0-.4-.3h-.1l-.5.2h-.1a6.7,6.7,0,0,0,.5,2.4Z"/>
    <path class="cls-3" d="M116.3,20.2h-.6a.6.6,0,0,0,0,.8h4.8a.6.6,0,0,0,.2-.5.5.5,0,0,0-.2-.4h-.6c-.8-.1-.8-.1-.8-1.7V12.8c0-1.7,0-1.7.8-1.8h.5a.5.5,0,0,0,.3-.6.4.4,0,0,0-.4-.4h-4.6a.6.6,0,0,0-.2.5.5.5,0,0,0,.2.4h.6c.8,0,.8,0,.8,1.7v5.7C117.1,20.1,117.1,20.1,116.3,20.2Z"/>
    <path class="cls-3" d="M104,12.3h0a.6.6,0,0,0,.5.3h.4a2.6,2.6,0,0,1,.6-1,3.7,3.7,0,0,1,1.9-.3h1.1s0,.1,0,.2V19c0,1.2,0,1.2-.6,1.2h-.9a.6.6,0,0,0,0,.8H112a.6.6,0,0,0,.2-.5.5.5,0,0,0-.2-.4h-.7c-.7,0-.7,0-.7-1.6h0V11.3c0-.1,0-.2,0-.2h1.4a3,3,0,0,1,1.8.4,1.9,1.9,0,0,1,.3.9h.1l.4.2.4-.2h.1a9.1,9.1,0,0,1,.2-2.4h0s.1-.2,0-.2h-.9c-.2.3-.2.3-1,.3h-6.8c-.8,0-1,0-1.1-.3h-.9a16.1,16.1,0,0,1-.6,2.3h0Z"/>
    <path class="cls-3" d="M99.3,20.2h-.6a.6.6,0,0,0,0,.8h4.8a.6.6,0,0,0,.2-.5.5.5,0,0,0-.2-.4h-.6c-.8-.1-.8-.1-.8-1.7V12.8c0-1.7,0-1.7.8-1.8h.5a.5.5,0,0,0,.3-.6.4.4,0,0,0-.4-.4H98.7a.6.6,0,0,0-.2.5.5.5,0,0,0,.2.4h.6c.8,0,.8,0,.8,1.7v5.7C100.1,20.1,100.1,20.1,99.3,20.2Z"/>
    <path class="cls-3" d="M87.8,20.2h-.9a.6.6,0,0,0,0,.8h5.2a.6.6,0,0,0,0-.8h-.9c-.7,0-.7,0-.7-.9V16.5a2.7,2.7,0,0,1,0-.5h.2c1.2,0,1.2,0,1.7,1l2,3.6h0a1,1,0,0,0,.9.6h2.4c.3-.3.3-.6.1-.8H97c-.4-.1-.5-.4-.8-.8h0l-1.6-2.8h-.1l-.5-.7a3,3,0,0,0,2.5-2.8c0-2.1-2.1-2.8-3.9-2.8H86.9a.3.3,0,0,0-.1.3h0a.5.5,0,0,0,.1.4h.6c.9.1.9.1.9,1v7.3h0C88.5,20.1,88.5,20.1,87.8,20.2Zm5.6-5.7a3.6,3.6,0,0,1-1.9.5h-1V11.9c0-.9,0-.9,1.2-.9s2.4.6,2.4,1.9A1.7,1.7,0,0,1,93.4,14.5Z"/>
    <path class="cls-3" d="M75.1,9.3h.8c.6,0,.7.1.7,1.5v7.2c0,1.9,0,1.9-.9,2.1h-.6a.6.6,0,0,0,0,.9h5.1c3.7,0,5.8-1.4,5.8-4a3.5,3.5,0,0,0-2.9-3.4,2.8,2.8,0,0,0,1.8-2.6,2.8,2.8,0,0,0-1.8-2.6,9,9,0,0,0-3.1-.6h-.5l-4.5.2a.4.4,0,0,0-.3.3.7.7,0,0,0,.2.7Zm5.6,10.6h-.2a1.8,1.8,0,0,1-1.2-.4,3.3,3.3,0,0,1-.4-1.8V14.9h.9c3.4,0,3.9,1.8,3.9,2.9S82.1,19.9,80.7,19.9Zm-1-6.4h-.8c0-.1,0-.1,0-.2V9.5a.5.5,0,0,1,0-.2h1c1.3,0,2.8.6,2.8,2.2S82.2,13.5,79.7,13.6Z"/>
    <path class="cls-3" d="M125.8,35.4H125l-.6-.2a.8.8,0,0,1-.2-.5h0c0-.2,0-.4,0-.5V27c0-.2,0-.8.1-.9h1.2a.4.4,0,0,0,.2-.3.5.5,0,0,0-.1-.4h-2.7a.7.7,0,0,0-.7.3l-3.7,7.6-3.3-7.5a.6.6,0,0,0-.6-.5H112a.3.3,0,0,0-.3.2c0,.2,0,.5.2.6h1.3c.1.1.1.3,0,.7l-.6,7.6c-.1.8-.1,1-.7,1h-.8a.5.5,0,0,0,0,.7h4.1a.5.5,0,0,0,0-.7h-.8a.9.9,0,0,1-.7-.3,2,2,0,0,1-.1-1.4l.5-6.3,3.4,8h0c.1.2.2.4.4.4a.4.4,0,0,0,.4-.3h.1l3.9-8.3v7.1a4.2,4.2,0,0,1,0,.5h0a.8.8,0,0,1-.2.5l-.6.2h-.8a.5.5,0,0,0,0,.7h5.1a.5.5,0,0,0,0-.7Z"/>
  </g>
</svg>
