<svg id="Layer_1" data-name="Layer 1" xmlns="http://www.w3.org/2000/svg" width="156.9" height="43.9" viewBox="0 0 156.9 43.9">
  <defs>
    <style>
      .cls-1 {
        fill: #013366;
      }

      .cls-2 {
        fill: #fdb913;
      }

      .cls-3 {
        fill: #fff;
      }

      .cls-4 {
        fill: #4c81af;
      }
    </style>
  </defs>
  <title>18_gov3_bc_logo</title>
  <rect class="cls-1" width="156.9" height="43.88"/>
  <rect class="cls-2" x="76.3" y="41.3" width="68.5" height="0.83"/>
  <path class="cls-3" d="M8.9,34.9c9.7,0,23.2,5.5,33,5.5,7,0,13.8-1.9,17.7-4.6a29.6,29.6,0,1,0-58.5,0A48.4,48.4,0,0,1,8.9,34.9Z" transform="translate(1 0.6)"/>
  <polygon class="cls-2" points="50.2 24.8 51.4 25.3 54 23.5 50.2 24.8"/>
  <path class="cls-2" d="M5.6,22.2,2.5,21.1l.2-.4,3.4,1.2h0l.5-.3h.2L3,19.9l.2-.4,8.4,3.4h.3L3.5,18.7l.2-.4,8.9,4.1h.1L4.1,17.5l.2-.4,12.4,6.8.4-.7a110.7,110.7,0,0,0-9.3-7.8,110.3,110.3,0,0,0,10.5,6l.5-.7L8.3,11.5l.3-.3,8.5,7.3L9.2,10.6l.3-.3,8.9,8.6L10.1,9.7l.3-.3,7.7,8.2-7-8.8.3-.3,9,10.9.7-.5A110.1,110.1,0,0,0,15.4,8.2a110.3,110.3,0,0,0,7.4,9.5l.8-.4h0L17.2,4.8l.4-.2,5.2,10L18.4,4.2l.4-.2,5,11.3L19.6,3.7H20l4,10.5L20.8,3.3h.4l4.2,13.4h0l.9-.2A110.2,110.2,0,0,0,25,4.3a110.4,110.4,0,0,0,3.3,11.5h.8L28,1.8h.4L29.5,13,29.3,1.8h.4l.4,12.4.4-12.4h.6L30.9,13l1-11.2h.4l-1.1,14h.9A110.5,110.5,0,0,0,35.4,4.4a111.1,111.1,0,0,0-1.3,11.9l.8.3L39.1,3.2h.4L36.3,14.1l4-10.5h.4L36.5,15.4l5-11.3.4.2L37.6,14.6l5.2-10,.4.2L36.9,17.3h0l.8.4a110.6,110.6,0,0,0,7.4-9.4,111.1,111.1,0,0,0-5.6,10.6l.7.6L48.9,8.6l.3.3-7,8.8,7.7-8.2.3.3L41.9,19l8.9-8.6.3.3-7.9,7.9,8.5-7.3.3.3L41.6,20.8h0l.5.6a110.5,110.5,0,0,0,10.4-6,110.6,110.6,0,0,0-9.2,7.7l.5.8L56,17.2l.2.4-9.8,5.5,10.2-4.7.2.4-9.5,4.6h.2l9.6-3.8.2.4-9,3.8h.2l6-2,.9-.6.3.2,2-.6.2.4-1.7.6,2.4,1.9.8.4a30,30,0,0,0-58.5.7h0l.4-.2h.2Z" transform="translate(1 0.6)"/>
  <path class="cls-4" d="M.6,36.6a49.3,49.3,0,0,1,8.1-.9c9.7,0,23.2,5.5,33,5.5,7.2,0,14.2-2,18-4.8a30.2,30.2,0,0,0-.4-12.2l-4.1-2.3-4.8,3.3L47.2,24c-1.1.5-7.8,5-7.8,5l-2.6-1.9-2.7-.5-3.7-2.7-4.2,2.9-4.9,2.7c-.2,0-5.7-4.4-5.7-4.4l-2.5-2.6-2.2,1.1h-.1l-1.7-.5L7.1,22,.9,24.8H.8A30.2,30.2,0,0,0,.6,36.6Z" transform="translate(1 0.6)"/>
  <g>
    <path class="cls-3" d="M76.2,11.2c0-1.9,0-2.2-1-2.3h-.5a.4.4,0,0,1,0-.6l4.6-.2a8.2,8.2,0,0,1,3.9.7,2.7,2.7,0,0,1,1.4,2.6A2.8,2.8,0,0,1,82.4,14h0a3.5,3.5,0,0,1,3.2,3.5,3.3,3.3,0,0,1-1.2,2.7c-.9.8-2.3,1.1-4.5,1.1H74.7c-.2-.1-.2-.4,0-.6h.4c.9-.1,1.1-.2,1.1-2.3Zm2.3,2.2c0,.5.1.5.9.5s2.7-.7,2.7-2.5A2.4,2.4,0,0,0,79.6,9c-1,0-1.1,0-1.1.8Zm0,4.7c0,1.8.2,2.6,1.9,2.6A2.5,2.5,0,0,0,83.1,18c0-2.1-1.4-3.3-3.6-3.3s-.9.1-.9.5Z" transform="translate(1 0.6)"/>
    <path class="cls-3" d="M88,13c0-1.7,0-1.9-.7-2h-.5a.4.4,0,0,1,0-.6l4.2-.2a7.1,7.1,0,0,1,3.3.6,2.8,2.8,0,0,1,1.5,2.5,2.7,2.7,0,0,1-1.8,2.5c-.2.1-.2.2-.1.4,1.1,2.3,1.8,3.6,2.6,4.2a2.1,2.1,0,0,0,1.1.5.3.3,0,0,1,.1.4l-1.3.2a3.5,3.5,0,0,1-3.3-1.8,21.1,21.1,0,0,1-1.3-2.6.9.9,0,0,0-.9-.6c-.6,0-.6,0-.6.4V19c0,1.6.1,1.7.9,1.8h.5a.5.5,0,0,1,0,.6h-5a.5.5,0,0,1,0-.6h.5c.8-.1.9-.3.9-1.8Zm2.3,2.2c0,.6.1.6,1.1.6a1.6,1.6,0,0,0,1.3-.5,2.5,2.5,0,0,0,.6-1.8,2.2,2.2,0,0,0-2.2-2.5c-.7,0-.7.1-.7.9Z" transform="translate(1 0.6)"/>
    <path class="cls-3" d="M102.6,18.9c0,1.6.1,1.7.9,1.9h.5a.5.5,0,0,1,0,.6H98.8a.5.5,0,0,1,0-.6h.5c.8-.1.9-.3.9-1.9V12.7c0-1.6-.1-1.7-.9-1.9h-.5a.5.5,0,0,1,0-.6H104a.5.5,0,0,1,0,.6h-.5c-.8.1-.9.3-.9,1.9Z" transform="translate(1 0.6)"/>
    <path class="cls-3" d="M108.8,11.5c0-.4,0-.5-.4-.5h-1.1c-1.2,0-1.6.7-2.1,1.9a.5.5,0,0,1-.6-.2,20.8,20.8,0,0,0,.6-2.9h.5c.1.3.1.4,1.4.4h6.3c1.1,0,1.4,0,1.5-.4h.5a12,12,0,0,0-.3,2.9c-.1.2-.5.2-.6.1S114,11,112.7,11h-1c-.4,0-.5.1-.5.5V19c0,1.6.1,1.7.9,1.8h.7a.5.5,0,0,1,0,.6h-5.6a.5.5,0,0,1,0-.6h.8c.8-.1.9-.2.9-1.8Z" transform="translate(1 0.6)"/>
    <path class="cls-3" d="M120,18.9c0,1.6.1,1.7.9,1.9h.5a.5.5,0,0,1,0,.6h-5.1a.5.5,0,0,1,0-.6h.5c.8-.1.9-.3.9-1.9V12.7c0-1.6-.1-1.7-.9-1.9h-.5a.5.5,0,0,1,0-.6h5.2a.5.5,0,0,1,0,.6h-.5c-.8.1-.9.3-.9,1.9Z" transform="translate(1 0.6)"/>
    <path class="cls-3" d="M125.9,21.7a5.9,5.9,0,0,1-2.9-.6,5.5,5.5,0,0,1-.5-2.8.4.4,0,0,1,.6-.1c.3,1.1,1.5,2.7,2.9,2.7a1.7,1.7,0,0,0,1.8-1.7c0-1.4-1.3-2.2-2.3-2.7s-2.6-1.6-2.6-3.3,1.5-3.2,3.9-3.2a6.9,6.9,0,0,1,1.9.3h.6a8.3,8.3,0,0,1,.3,2.4c-.1.2-.5.2-.7.1s-1-2.1-2.2-2.1a1.6,1.6,0,0,0-1.7,1.6,2.5,2.5,0,0,0,1.5,1.9l1.1.6a3.9,3.9,0,0,1,2.4,3.4C130.2,20.3,128.5,21.7,125.9,21.7Z" transform="translate(1 0.6)"/>
    <path class="cls-3" d="M135.4,16c-.7,0-.7,0-.7.5V19c0,1.6.1,1.7.9,1.8h.5a.5.5,0,0,1,0,.6H131a.5.5,0,0,1,0-.6h.4c.8-.1.9-.3.9-1.9V12.7c0-1.6-.1-1.8-.9-1.9H131a.5.5,0,0,1,0-.6h4.9a.5.5,0,0,1,0,.6h-.4c-.7.1-.8.3-.8,1.9v2c0,.5,0,.5.7.5H139c.7,0,.7,0,.7-.5v-2c0-1.6-.1-1.7-.9-1.8h-.5a.5.5,0,0,1,0-.6h5a.5.5,0,0,1,0,.6H143c-.8.1-.9.3-.9,1.9V19c0,1.6.1,1.7.9,1.8h.4a.5.5,0,0,1,0,.6h-5a.5.5,0,0,1,0-.6h.4c.8-.1.9-.3.9-1.9V16.5c0-.5,0-.5-.7-.5Z" transform="translate(1 0.6)"/>
    <path class="cls-3" d="M74.1,23.4l1.5.3c.1,0,.3.2.3.6s.1,1.3.1,1.9-.1.8-.3.8-.3-.2-.4-.6a3.1,3.1,0,0,0-.9-1.5,4.7,4.7,0,0,0-3-1.2c-3.3,0-4.8,2.6-4.8,5.7a7.8,7.8,0,0,0,.7,3.5A5.1,5.1,0,0,0,71.9,36a4.3,4.3,0,0,0,2-.5,4.6,4.6,0,0,0,1.8-1.9c.2-.5.4-.6.6-.6s.2.5.2.8a9.5,9.5,0,0,1-.6,1.8,1.7,1.7,0,0,1-.7.7,11,11,0,0,1-3.6.6,8.3,8.3,0,0,1-6-2.3,6.8,6.8,0,0,1-1.7-4.6A6.5,6.5,0,0,1,65.9,25a8.7,8.7,0,0,1,5.5-1.8A11.5,11.5,0,0,1,74.1,23.4Z" transform="translate(1 0.6)"/>
    <path class="cls-3" d="M89,30.8c0,3.7-2.5,5.9-6.1,5.9a5.5,5.5,0,0,1-5.9-5.8,5.9,5.9,0,0,1,6.1-6A5.6,5.6,0,0,1,89,30.8Zm-6.1-5c-2.1,0-3.2,2-3.2,4.8s.7,5.4,3.5,5.4,3.1-2.2,3.1-4.9S85,25.7,82.9,25.7Z" transform="translate(1 0.6)"/>
    <path class="cls-3" d="M93,33.6a2.8,2.8,0,0,0,.3,1.6c.2.3.5.4,1.8.4s2-.1,3-2a.5.5,0,0,1,.6.1,10.5,10.5,0,0,1-.7,2.8H89.1a.5.5,0,0,1-.1-.6h.6c.8-.1.9-.2.9-1.8V27.7c0-1.6-.1-1.7-.9-1.8h-.5a.4.4,0,0,1,0-.6h5.1a.5.5,0,0,1,0,.6h-.4c-.8.1-.9.3-.9,1.8Z" transform="translate(1 0.6)"/>
    <path class="cls-3" d="M99.3,27.7c0-1.6-.1-1.7-.9-1.8H98a.4.4,0,0,1,0-.6h5a.5.5,0,0,1,0,.6h-.4c-.8.1-.9.3-.9,1.9v3.9c0,2,.2,4.2,2.8,4.2s2.8-1.9,2.8-4.2V29.5a11.8,11.8,0,0,0-.3-3.1c-.2-.4-.5-.5-1-.5h-.5a.5.5,0,0,1,0-.6h4.2a.5.5,0,0,1,0,.6h-.3c-.4.1-.8.2-.9.6a11.8,11.8,0,0,0-.3,3.1v1.9a5.9,5.9,0,0,1-1.1,4.1,4.6,4.6,0,0,1-3.4,1.2,5.1,5.1,0,0,1-3.4-1c-.9-.7-1.3-2-1.3-3.8Z" transform="translate(1 0.6)"/>
    <path class="cls-3" d="M110.8,25.8c-.1-.1-.1-.5.1-.6h3.8c0,1.1.6,2.1,1.3,3.7l1.1,2.4,1,1.8,1-1.9.9-1.9a21.2,21.2,0,0,0,1.6-4.1h3.6a.4.4,0,0,1,.1.6h-.5c-.7.1-1,.3-1,1.2,0,3.5,0,5.3.1,7.5s.1,1.2.8,1.3h.5c.1.1.1.5,0,.6h-4.9a.4.4,0,0,1-.1-.6h.5c.8-.1.8-.3.8-1.3V28.1h0c-1.3,2.7-2.6,5.6-3.7,8.4h-.8c-.7-2.1-2.8-6.3-3.7-8.5h0c-.1,1.1-.1,1.9-.1,2.7s0,2.8,0,3.8.1,1.1.8,1.2h.7a.5.5,0,0,1,0,.6h-3.9c-.2-.1-.2-.5-.1-.6h.3c.9-.2,1-.3,1.1-1.3s.1-2.3.2-3.9.1-2.5.1-3.4-.4-1.2-1.1-1.3Z" transform="translate(1 0.6)"/>
    <path class="cls-3" d="M127.8,28c0-1.7,0-1.9-.7-2h-.5c-.2-.1-.2-.6.1-.6l4.2-.2a6.9,6.9,0,0,1,3.5.6,2.4,2.4,0,0,1,1.2,2.2,2.2,2.2,0,0,1-1.7,2.1l-.3.2h.2a2.9,2.9,0,0,1,.5,5.7,10.6,10.6,0,0,1-3.4.4h-4.4c-.1-.1-.1-.5,0-.6h.5c.8-.2.9-.3.9-1.8Zm2.3,1.6c0,.4,0,.5.9.5a1.8,1.8,0,0,0,2-2,2,2,0,0,0-2.1-2.2c-.8,0-.8.1-.8.9Zm0,3.9c0,1.3.2,2.2,1.5,2.2s1.9-1,1.9-2.3a2.3,2.3,0,0,0-2.5-2.5c-.9,0-.9,0-.9.7Z" transform="translate(1 0.6)"/>
    <path class="cls-3" d="M140.8,33.9c0,1.6.1,1.7.9,1.9h.5a.5.5,0,0,1,0,.6h-5.1a.5.5,0,0,1,0-.6h.5c.8-.1.9-.3.9-1.9V27.7c0-1.6-.1-1.7-.9-1.9h-.5a.5.5,0,0,1,0-.6h5.2a.5.5,0,0,1,0,.6h-.5c-.8.1-.9.3-.9,1.9Z" transform="translate(1 0.6)"/>
    <path class="cls-3" d="M146.9,32.6c-.4,0-.5,0-.6.3l-.7,2a2,2,0,0,0-.1.6c0,.1.2.2.7.3h.5c.1.1.1.5,0,.6h-3.7c-.2-.1-.2-.5-.1-.6h.5a1.2,1.2,0,0,0,1-.9l1.1-2.7,1.5-4.1a6.2,6.2,0,0,0,.6-2.2,3.4,3.4,0,0,0,1.5-1c.2,0,.3.1.4.3l.8,2.3,2.3,6.7c.4,1,.5,1.4,1.1,1.5h.6c.1.1.1.5,0,.6h-4.9a.4.4,0,0,1,0-.6h.5c.4-.1.5-.2.5-.3a7.2,7.2,0,0,0-.3-1.2l-.5-1.5c-.1-.3-.2-.3-.8-.3Zm1.9-.9c.4,0,.5-.1.3-.5l-.4-1.4-.7-2-.7,2.1-.4,1.3c-.2.5-.1.5.4.5Z" transform="translate(1 0.6)"/>
  </g>
</svg>
