<svg id="Layer_1" data-name="Layer 1" xmlns="http://www.w3.org/2000/svg" viewBox="0 0 155 52">
  <defs>
    <style>
      .cls-1{fill:#036;}.cls-2{fill:#fdb913;}.cls-3,.cls-4{fill:#fff;}.cls-3{fill-rule:evenodd;}.cls-5{fill:#4c81af;}
    </style>
  </defs>
  <title>Artboard 1</title>
  <rect class="cls-1" width="155" height="52"/>
  <rect class="cls-2" x="75.17" y="49.95" width="68.52" height="0.83"/>
  <path class="cls-3"
        d="M153.94,45a.29.29,0,0,1,0,.4c-.24,0-.06,0-.27,0h0c-.62,0-1.24-.06-1.86-.06s-1,0-1.5.06l-.66,0a.29.29,0,0,1,0-.4l.43,0,.27,0c.43,0,.89-.06.89-.49a2.76,2.76,0,0,0-.25-.83l-.56-1.28c-.37-.86-.25-.86-1.1-.86h-2.41c-.71,0-.6.07-.87.67l-.53,1.26a2.8,2.8,0,0,0-.25.93c0,.45.51.52.92.57l.24,0,.44.05a.29.29,0,0,1,0,.4l-.66,0c-.39,0-.78-.06-1.18-.06s-.93.06-1.4.06l-.66,0a.29.29,0,0,1,0-.4l.42,0,.28,0a1,1,0,0,0,.65-.24,5.62,5.62,0,0,0,.67-1.33l3.41-8.44c.05-.13.11-.37.3-.37s.21.22.25.32l3.57,8.46c.26.59.53,1.43,1.22,1.58l.24,0Zm-6.11-7.38c0-.09.16-.51.31-.51s.25.44.29.51l1.23,2.9s.13.31.13.37-.42.14-.53.14h-2.08c-.07,0-.65.07-.65-.1a.87.87,0,0,1,.05-.2Z"/>
  <path class="cls-4"
        d="M138.84,37.18c0-1.7,0-2-1.06-2.05l-.43,0c-.1-.06-.07-.35,0-.4.87,0,1.46,0,2.18,0s1.28,0,2.15,0c.11,0,.14.34,0,.4l-.43,0c-1,.08-1.06.35-1.06,2.05V42.9c0,1.7,0,1.93,1.06,2l.43,0c.1.06.07.35,0,.4-.87,0-1.45,0-2.15,0s-1.32,0-2.18,0a.29.29,0,0,1,0-.4l.43,0c1-.11,1.06-.34,1.06-2Z"/>
  <path class="cls-4"
        d="M128.33,36.73c0-1.2-.08-1.51-.92-1.58l-.6-.06c-.07-.06-.11-.39,0-.39,1-.08,2.29-.13,4-.13A8.2,8.2,0,0,1,134,35a2.13,2.13,0,0,1,1.43,2c0,1.17-.79,1.77-1.92,2.22,0,.16.15.21.36.24a2.84,2.84,0,0,1,2.52,2.71c0,1.88-1.62,3.15-5,3.15-.54,0-1.47,0-2.26,0s-1.47,0-2.16,0a.28.28,0,0,1,0-.4l.34-.05c1-.14,1-.32,1-2Zm1.54,2.15c0,.46,0,.49,1,.46,1.92-.06,3-.55,3-2.07s-1.37-2.19-2.8-2.19a2.65,2.65,0,0,0-.87.1c-.19,0-.26.13-.26.42Zm0,3.76a2.81,2.81,0,0,0,.4,1.77,2,2,0,0,0,1.48.45c1.67,0,3-.65,3-2.27,0-1.28-.75-2.77-3.74-2.77-1,0-1.09.1-1.09.42Z"/>
  <path class="cls-4"
        d="M125,44.93l-.26,0a.68.68,0,0,1-.48-.19c-.22-.24-.21-.92-.21-1.19v-7c0-.31-.07-1,.15-1.21a.85.85,0,0,1,.55-.16H125l.45,0c.1-.06.07-.35,0-.4h-2.56c-.21,0-.39,0-.51.22l-3.86,8-3.41-7.77c-.11-.27-.13-.49-.49-.49h-2.64c-.11,0-.14.34,0,.4l.45,0,.26,0c.74,0,.78.21.72,1l-.58,7.55c-.05.76-.09,1.16-.88,1.23l-.26,0-.45.05a.28.28,0,0,0,0,.4l.65,0c.4,0,.81-.05,1.22-.05s.89,0,1.33.06h0l.66,0a.29.29,0,0,0,0-.4l-.45,0-.25,0c-1.15-.08-1.12-.89-1-1.88l.54-7H114l3.69,8.64c0,.12.09.32.28.32s.22-.19.28-.31l4.16-8.86h.13v7.72c0,.31,0,.94-.28,1.18a2.38,2.38,0,0,1-.71.2l-.24,0-.44,0a.29.29,0,0,0,0,.4l.65,0c.61,0,1.22-.06,1.83-.06.44,0,1.31,0,1.31,0l.68,0a.29.29,0,0,0,0-.4Z"/>
  <path class="cls-4"
        d="M108.55,38.73a10.88,10.88,0,0,0-.33-3.32,1.08,1.08,0,0,0-.85-.34l-.42,0a.28.28,0,0,1,0-.39c.65,0,1.28.05,1.94.05s1.17,0,1.79,0a.27.27,0,0,1,0,.39l-.41,0a1,1,0,0,0-.85.38,13.56,13.56,0,0,0-.24,3.28v1.81a5.37,5.37,0,0,1-1.19,3.84,4.63,4.63,0,0,1-3.25,1.17,5,5,0,0,1-3.18-.88c-.9-.71-1.33-1.88-1.33-3.79V37.1c0-1.67,0-1.94-1-2l-.43,0c-.1-.06-.07-.34,0-.39.85,0,1.43.05,2.11.05s1.26,0,2.09,0c.1,0,.14.32,0,.39l-.41,0c-1,.08-1,.35-1,2v3.47c0,2.59.85,4.29,3.45,4.29s3.4-1.83,3.4-4.27Z"/>
  <path class="cls-4"
        d="M91.53,37.15c0-1.69,0-1.94-1.15-2l-.44,0c-.11-.06-.07-.35,0-.4,1,0,1.59,0,2.3,0s1.29,0,2.17,0c.11,0,.14.34,0,.4l-.43,0c-1,.08-1.08.34-1.08,2v5.59c0,1,.05,1.43.37,1.73s.53.37,1.92.37a5.06,5.06,0,0,0,2.15-.21A3.44,3.44,0,0,0,98.59,43c.11-.08.44,0,.44.1a12,12,0,0,1-.74,2.24c-.9,0-2.58,0-4.4,0H92.27c-.74,0-1.31,0-2.3,0a.29.29,0,0,1,0-.4l.53,0c1-.1,1.06-.32,1.06-2Z"/>
  <path class="cls-4"
        d="M77.67,40.11a5.7,5.7,0,0,1,6-5.67c3.89,0,5.85,2.68,5.85,5.51a5.62,5.62,0,0,1-5.85,5.6C79.93,45.55,77.67,43,77.67,40.11Zm10.16.34c0-2.65-1.23-5.51-4.45-5.51-1.75,0-4,1.14-4,4.66,0,2.38,1.21,5.46,4.53,5.46C85.92,45.06,87.84,43.61,87.84,40.45Z"/>
  <path class="cls-4"
        d="M67,33.84a8.4,8.4,0,0,1,5.25-1.65,15,15,0,0,1,3.44.47,1.41,1.41,0,0,0,.54.08c0,.45.12,1.67.27,2.85a.41.41,0,0,1-.53,0c-.29-1.32-1.17-2.83-4-2.83-3,0-5.5,1.88-5.5,5.89S69.12,45,72.31,45a4.14,4.14,0,0,0,4.07-2.77.41.41,0,0,1,.51.08A7.22,7.22,0,0,1,75.94,45a4,4,0,0,0-.68.19,11.45,11.45,0,0,1-3.07.45,8.53,8.53,0,0,1-4.84-1.3A6.24,6.24,0,0,1,64.59,39,6.43,6.43,0,0,1,67,33.84Z"/>
  <path class="cls-4"
        d="M135,25.08c-.83,0-.86,0-.86.51v2.26c0,1.69.08,1.91,1.05,2l.5,0c.1.06.07.35,0,.4-.93,0-1.52,0-2.19,0s-1.33,0-2,0a.3.3,0,0,1,0-.4l.29,0c1-.16,1-.32,1-2V22.08c0-1.69-.12-2-1-2l-.45,0c-.1-.06-.07-.35,0-.4.85,0,1.43,0,2.18,0s1.26,0,2,0c.1,0,.14.34,0,.4l-.33,0c-1,.1-1,.34-1,2v1.85c0,.5,0,.51.86.51h4.94c.83,0,.86,0,.86-.51V22.08c0-1.69,0-1.93-1.05-2l-.33,0c-.1-.06-.07-.35,0-.4.79,0,1.38,0,2.09,0s1.26,0,2,0c.11,0,.14.34,0,.4l-.36,0c-1,.1-1,.34-1,2v5.78c0,1.69,0,1.89,1,2l.41,0c.1.06.07.35,0,.4-.83,0-1.42,0-2.09,0s-1.33,0-2.09,0a.29.29,0,0,1,0-.4l.33,0c1.05-.16,1.05-.32,1.05-2V25.59c0-.48,0-.51-.86-.51Z"/>
  <path class="cls-4"
        d="M125.42,30.48a6.76,6.76,0,0,1-3-.59,6.41,6.41,0,0,1-.51-2.25c.1-.11.38-.14.46,0A3.28,3.28,0,0,0,125.67,30c1.59,0,2.37-.88,2.37-1.85,0-.71-.17-1.49-1.55-2.25l-1.8-1a3.43,3.43,0,0,1-2-2.76c0-1.52,1.4-2.76,3.86-2.76a8.54,8.54,0,0,1,1.76.21,3,3,0,0,0,.66.1,6,6,0,0,1,.34,2,.43.43,0,0,1-.47,0,2.38,2.38,0,0,0-2.58-1.81c-1.86,0-2.25,1-2.25,1.78,0,.93.91,1.61,1.61,2l1.52.8c1.2.63,2.37,1.56,2.37,3.08C129.46,29.28,127.89,30.48,125.42,30.48Z"/>
  <path class="cls-4"
        d="M117.44,22.11c0-1.7,0-2-1.09-2.05l-.45,0c-.11-.06-.07-.35,0-.4.89,0,1.5,0,2.25,0s1.32,0,2.21,0c.11,0,.14.34,0,.4l-.45,0c-1.05.08-1.09.35-1.09,2.05v5.72c0,1.7,0,1.93,1.09,2l.45,0c.11.06.07.35,0,.4-.89,0-1.5,0-2.21,0s-1.35,0-2.25,0a.29.29,0,0,1,0-.4l.45,0c1.05-.11,1.09-.34,1.09-2Z"/>
  <path class="cls-4"
        d="M110.28,27.86c0,1.69,0,1.93,1,2l.53,0c.1.06.07.35,0,.4-1,0-1.52,0-2.19,0s-1.25,0-2.32,0a.27.27,0,0,1,0-.4l.6,0c1-.08,1-.32,1-2V20.68c0-.5,0-.51-.5-.51h-.92a3.53,3.53,0,0,0-2.05.4,2.92,2.92,0,0,0-.75,1.11.33.33,0,0,1-.43-.11,16.48,16.48,0,0,0,.63-2.39.43.43,0,0,1,.32,0c.1.51.65.5,1.42.5h6.76c.9,0,1.05,0,1.3-.45.08,0,.27,0,.3,0a9.39,9.39,0,0,0-.25,2.44.32.32,0,0,1-.43,0c-.05-.4-.17-1-.42-1.17a3.42,3.42,0,0,0-1.94-.4h-1.19c-.5,0-.49,0-.49.55Z"/>
  <path class="cls-4"
        d="M100.4,22.11c0-1.7,0-2-1.09-2.05l-.45,0c-.11-.06-.07-.35,0-.4.89,0,1.5,0,2.24,0s1.32,0,2.21,0c.11,0,.14.34,0,.4l-.45,0c-1.05.08-1.09.35-1.09,2.05v5.72c0,1.7,0,1.93,1.09,2l.45,0c.1.06.07.35,0,.4-.89,0-1.5,0-2.21,0s-1.35,0-2.24,0a.29.29,0,0,1,0-.4l.45,0c1.05-.11,1.09-.34,1.09-2Z"/>
  <path class="cls-3"
        d="M97.67,29.91a.29.29,0,0,1,0,.4l-.66,0H95.36c-.38,0-.49-.33-.64-.59l-1.87-3.36c-.69-1.2-.67-1.34-2.11-1.34-.15,0-.32,0-.42.09s-.1.53-.1.69v2.65c0,1-.06,1.33,1,1.4l.25,0,.45,0a.29.29,0,0,1,0,.4l-.66,0h0c-.58,0-1.14-.06-1.73-.06s-1.17,0-1.76.06l-.66,0a.29.29,0,0,1,0-.4l.45,0,.25,0c1.06-.09,1-.39,1-1.4v-7c0-1.1.05-1.34-1.23-1.41-.36,0-.48.06-.48-.22s0-.26.34-.26l1.94,0,3.18,0c1.81,0,3.6.81,3.6,2.61,0,1.57-1.43,2.48-3,2.67.61.09.89.69,1.16,1.13l1.54,2.68c.31.54.57,1.12,1.22,1.24l.25,0Zm-7.46-8.67c0-1.2,0-1.38,1.48-1.38,1.69,0,2.74.86,2.74,2.44a2,2,0,0,1-.88,1.75,3.92,3.92,0,0,1-2.38.57c-.32,0-1,.12-1-.31Z"/>
  <path class="cls-4"
        d="M76.92,20.26c0-1.39-.1-1.76-1-1.83l-.65,0c-.11-.08-.08-.46,0-.47,1.13-.1,2.55-.15,4.49-.15a8.72,8.72,0,0,1,3.51.53,2.46,2.46,0,0,1,1.59,2.35c0,1.35-.88,2-2.13,2.58,0,.19.17.24.4.28a3.22,3.22,0,0,1,2.8,3.14c0,2.18-1.79,3.65-5.55,3.65-.61,0-1.63-.06-2.5-.06s-1.63,0-2.4.06a.34.34,0,0,1,0-.47l.38-.06c1.11-.17,1.15-.38,1.15-2.35Zm1.71,2.5c0,.53,0,.56,1.09.53,2.13-.07,3.28-.64,3.28-2.41s-1.52-2.54-3.11-2.54a2.81,2.81,0,0,0-1,.11c-.21.06-.29.15-.29.49Zm0,4.36a3.36,3.36,0,0,0,.44,2,2.15,2.15,0,0,0,1.65.53c1.86,0,3.28-.75,3.28-2.63,0-1.48-.84-3.21-4.15-3.21-1.13,0-1.21.11-1.21.49Z"/>
  <path class="cls-4"
        d="M8.6,44.14c9.73,0,23.2,5.48,33,5.48,7,0,13.78-1.86,17.65-4.6A29.62,29.62,0,1,0,.38,40.07,29.91,29.91,0,0,0,.79,45,48.38,48.38,0,0,1,8.6,44.14Z"/>
  <polygon class="cls-2" points="49.14 33.22 50.31 33.71 52.91 31.9 49.14 33.22"/>
  <path class="cls-2"
        d="M5.5,31.2,2.42,30.12l.16-.38L6,30.9h0l.46-.26.18-.11L2.91,28.9l.16-.4,8.44,3.41.28-.12L3.42,27.73l.19-.38,8.87,4.13.12-.06L4,26.53l.18-.37L16.6,32.92c.1-.19.32-.53.42-.71a110.69,110.69,0,0,0-9.28-7.77,110.35,110.35,0,0,0,10.47,6.05c.19-.24.35-.43.55-.66L8.17,20.51l.28-.29L17,27.51,9.08,19.57l.3-.31,8.89,8.6L10,18.67l.32-.28L18,26.58l-7-8.8.3-.27,9,10.89c.23-.2.42-.35.66-.54a110.15,110.15,0,0,0-5.67-10.63,110.32,110.32,0,0,0,7.4,9.49c.26-.15.52-.29.79-.42l0,0L17.1,13.76l.37-.17,5.2,10L18.29,13.23l.39-.17,5,11.3L19.48,12.74l.4-.15,4,10.46L20.72,12.28l.38-.14L25.29,25.5v0h0c.28-.09.56-.18.85-.25a110.19,110.19,0,0,0-1.27-11.91,110.43,110.43,0,0,0,3.29,11.51l.89-.09h0l0,0-1.13-14h.41L29.42,22l-.19-11.21h.43l.43,12.36.43-12.36h.43L30.75,22l1.09-11.18h.41l-1.13,14,0,0h0l.87.08a110.53,110.53,0,0,0,3.28-11.5A111.12,111.12,0,0,0,34,25.25l.85.25L39,12.18l.38.14L36.22,23.1l4-10.46.4.15L36.41,24.4l5-11.3.39.17L37.46,23.6l5.2-10,.37.17L36.78,26.28h0c.26.12.51.26.76.4a110.58,110.58,0,0,0,7.36-9.44A111.09,111.09,0,0,0,39.27,27.8c.24.18.48.37.71.57l8.85-10.78.3.27-7,8.8,7.65-8.19.32.29-8.28,9.19,8.89-8.59.3.31L43.1,27.59l8.55-7.29.28.29L41.47,29.82h0c.18.2.36.41.53.63a110.47,110.47,0,0,0,10.39-6,110.6,110.6,0,0,0-9.21,7.71c.13.21.34.58.46.8l12.24-6.67.18.37-9.77,5.54,10.17-4.73.19.38-9.47,4.61.18.06L57,28.63l.16.39-9,3.81.17.07,6-2,.9-.63.3.23,2-.65.16.38-1.7.6L58.4,32.7l.79.44a30,30,0,0,0-58.52.7l.11-.05.36-.16.22-.11Z"/>
  <path class="cls-5"
        d="M.5,45.61a49.28,49.28,0,0,1,8.12-.89c9.73,0,23.2,5.48,33,5.48,7.17,0,14.16-2,18-4.83a30.17,30.17,0,0,0-.37-12.23l-4.07-2.27-4.78,3.35L47.12,33c-1.09.55-7.8,5-7.8,5l-2.58-1.87L34,35.6l-3.69-2.69-4.23,2.9s-4.72,2.74-4.88,2.74-5.69-4.38-5.69-4.38l-2.55-2.69c-.43.27-2.17,1.07-2.17,1.07l-.09,0L9,32.06,7,31,.78,33.79l-.11.05A30.21,30.21,0,0,0,.5,45.61Z"/>
</svg>
